<svg height="461" viewBox="0 0 799 461" width="799" xmlns="http://www.w3.org/2000/svg"><g fill="none" fill-rule="evenodd"><path d="m681.177626 157.907718 53.047591-8.229904-53.047591-31.432498 117.371343-18.203387-44.904688 78.690777 44.904688 76.270426-55.88627 8.668025-8.437482-54.15601v95.12387l-607.632631 94.244067-9.223029 1.430126-52.9993862 8.220999 51.0248092 34.476192-115.39498 17.897058 44.9029029-78.690777-44.9029029-76.270426 56.182635-8.628844 8.1375464 86.377483v-130.116546z" fill="#a31e39"/><path d="m150.424108 158.914143c2.728605-.561808 5.640556 1.45283 7.777784 4.945347-.810672-.31132-1.6537-.402569-2.485943-.230806-3.172588.651268-4.975481 4.8702-4.029996 9.421924.947283 4.553512 4.283444 7.713238 7.454235 7.06018.679455-.139557 1.295998-.443721 1.837045-.880286-.731582 3.488939-2.500323 6.004553-4.975481 6.512686-4.220531.87134-8.890438-4.430058-10.430896-11.840921-1.53866-7.409075.63272-14.120362 4.853252-14.988124zm271.22845-145.7195536c-51.277298 9.9908894-92.731255 20.6241013-123.375044 31.9568901-3.373909-5.6789188-6.747817-11.3578376-10.121726-17.0403349-3.176183-4.002439-5.268474-7.9082612 5.944335-10.6546822 33.309482-10.26642606 64.217504-16.89362055 91.120694-17.45542915 7.86766-.03757319 14.432132.94469727 18.676031 3.74837269 5.919169 3.1489909 11.836541 6.29619256 17.75571 9.44518346zm106.079494 26.1956681c-.600366-4.4586848.192332-5.2280406 5.446426-4.5374096 5.658532.7425177 7.344587 6.0474939 8.374555 10.3612536-2.908356.7568313-9.503385 1.6174362-12.408146 2.3724784-.835838-4.5123609-1.13602-6.1530567-1.412835-8.1963224zm64.684854-14.2098214c-1.355316-4.8218924-4.680692-8.1014948-7.754418-7.4681182-1.85502.3828886-3.224715 2.1040984-3.873613 4.4980472.1438-4.8719899 2.219913-8.7277146 5.446426-9.3915075 4.207949-.8677617 8.780791 4.0167526 10.211601 10.9105378.091673.440143.167168.8784969.231878 1.3132723zm-58.983183-9.5310651c5.676507-2.2418668 22.621545-10.60279551 45.534284-8.6167842 2.058138.17891993 13.073221 2.54245231 8.800562 2.63012308-11.293695.23617432-8.942565 10.63142272-11.518383 13.62296402-3.648926 4.2332458-18.099033-2.791151-24.91875-1.3866295-.32355.0662004 13.110969 2.2454452 17.049293 5.7648004 2.744783 2.4547815-.127623 2.8251458-2.458981 1.651431-2.967673-1.4939815-16.939645-5.1367914-25.368125-4.3066029-3.138436.3095315-4.398484-1.5762846-5.532707-4.1151585zm-171.415043 101.639049c3.461986-.710312 7.085747 1.477879 9.681338 5.36223-1.01379-.331001-2.076113-.409726-3.134841-.191444-4.024604.828399-6.426064 5.644924-5.361944 10.758456 1.062323 5.113532 5.187587 8.586368 9.21219 7.756179.861003-.175341 1.648308-.538549 2.343941-1.046681-1.024575 3.959498-3.332566 6.852633-6.474597 7.498534-5.358349 1.103936-11.103161-4.746746-12.834154-13.070101-1.729195-8.321567 1.211516-15.963237 6.568067-17.067173zm-13.945009 17.188838-9.280495 4.666232c-.044938-.207547-.089875-.416883-.131218-.62443-4.441624-21.357673 3.163601-40.9780336 16.984583-43.8246498 4.038983-.8319777 8.158855-.1395575 12.081001 1.7874102-2.009606-.3202667-3.988654-.511711-4.391294-.6620038-5.166016-1.9394921-14.486057 4.4264794-9.517765 3.4030572 5.313411-1.09499 7.741835.5886466 10.855105 1.1128822-1.116247-.071568-2.232495.001789-3.341553.229017-10.382363 2.139883-16.121782 17.111903-13.258364 33.912485zm7.096532-42.0748122c14.642439-3.0148009 30.320239 12.8804462 35.024298 35.5030832 4.702261 22.624426-3.354136 43.407766-17.99298 46.424356-14.640642 3.011223-30.322037-12.882235-35.024298-35.506661-4.700464-22.620848 3.355933-43.4059772 17.99298-46.4207782zm62.055111-39.3212347c-5.376324 4.9095631-.943688-10.7745586 10.824548-6.6236161 3.929336 1.3884188 9.526753 6.5645726 7.67353 11.3166861-4.080326 5.3031869-7.495577-13.9163927-18.498078-4.69307zm84.496905 1.3758944c1.45238-12.3884165 13.936022-23.9359093 15.873727-14.5801858.125825 3.1006826.76933 8.0782352.541048 10.3791456-1.109058.1896552-9.5645 1.7784642-16.414775 4.2010402zm83.064297-18.8152207c7.67353 5.9294067 14.899482 2.3527972 13.269149-5.4892637 1.793905 10.4381892 3.098891 21.5133333 5.221739 31.7564998-.710013-4.1580994-4.186379-3.8360435-9.386548-2.1685097-1.389468-15.5660346-9.970735-17.0081293-9.10434-24.0987264zm-439.839392 166.0180212c-3.291224 3.777-28.033819-4.018542-31.623427-23.404517-4.975482-26.845148 14.502234-56.760561 42.85421-68.776824-15.877322 7.410863-23.606575 18.394758-28.869656 27.68786-2.534476 4.474788-3.808904 12.152242-1.130628 13.748208 2.171381 1.29717 4.038984-9.144598 11.696336-14.077421 4.748996-3.06132 5.735824-1.336532 2.207331 1.479668-1.849628 1.477879-3.197754 3.603448-4.278052 5.984872-6.485382 14.308228-3.122258 46.526341 9.143886 57.358154zm54.791411-1.20771c.041342-2.14525.149192-1.744469.807077-3.465679 2.126444-5.584091.807078-5.823844 6.636372-6.99577 40.008767-8.047818 82.823432-13.529925 121.971196-21.685096.528466 2.173877-.76933 4.757481-4.317596 5.67534-42.618737 8.820753-81.969619 16.095638-125.097049 26.471205zm221.042235-51.013652c34.05185-7.011873 67.431435-15.716328 101.102215-22.876704 11.486028 11.395411 18.598738 9.366459 20.897741 11.422249-10.785003 1.937703-123.065874 20.373613-124.705194 21.590269zm-203.169687-101.7106174c11.216403-8.0567648 41.462944-24.4315175 51.773407-18.3410828 4.447017 1.1146712 15.494455 16.637765 17.279373 20.4272893-35.198655 7.2283655-60.971218 18.28025-95.763638 28.6254008.046735-3.8968763 3.715433-7.8617421 6.120489-10.7369855 4.747199-5.6771296 11.426711-13.0539986 17.322513-17.5788838zm235.120259 43.8246495c.20132-7.2641495 2.302598-9.8620669 7.29965-13.3724761 18.51066-12.71584 81.241631-26.2296629 108.694857-30.6275149 14.302712-.9661677 17.550795 10.4936543 19.242243 13.4243629-4.828086 2.6014959-10.037243 1.9090757-14.859937 5.8524711 0 0-3.693864-4.3209165-9.28409-1.2595963.391855.4007806 1.693245 3.1167853-.325348 2.8573514-.026962-.0733572-.005392.2129147-.037747.3131099-3.496139-1.5369223-3.751384-1.8697134-6.63817-1.3257968 1.366101 1.3508456 1.952086 2.2203965 1.668081 3.4585224-3.634546-2.2490236-5.459009-3.5050415-7.466817-2.8591406.744165.8015613.681252 3.7358483-.449376 4.5356204-.363095-1.8947621-4.589018-2.7267398-6.143856-2.3116456 1.204325.3936239 2.151608 2.2150289 1.438 3.8521463-2.155203-1.4635651-4.535094-3.6356531-8.381745-2.1327256.830445.4383538 1.27263 1.5637602 1.610561 4.2332457-.636316-.8838645-3.922147-4.6358156-8.663953-2.8841894 1.59618.4007806 2.568628 1.8339293 1.808285 3.921925-3.397276-.9089133-5.529111-3.5300904-9.258925-1.5047167 1.727398.5224463 2.379891 2.4118408 1.481141 3.7984703-1.024576-.4115158-6.08454-3.8432002-8.840108-1.9734869 1.240275.08946 1.439798 2.7696806-.231877 3.9004546-2.167786-1.8768701-4.107289-3.4084248-8.086955-1.7999345 1.802893.2970071 2.18576 2.5889715 1.455975 3.7752107-5.074344-2.1112553-5.218144-4.020331-9.366775-2.1774557.548237.5260246 2.554248 2.3653216.832243 3.9326602-11.779021-4.5892964-8.982111-.1485035-20.198514 2.1148337-2.424828.4884514-4.842466 1.0252112-7.265497 1.5190303zm-163.710956 72.4142659c-8.72327-3.204456-12.952789-8.597103-14.268559-15.324492-10.206208-52.1587404 82.546617-109.2234653 139.372799-109.8962043 34.172282-.404359 30.629409 46.3170043 5.074344 32.862225-8.074373-5.5035773-9.160063-21.9838928-1.330151-26.1437813 2.778936-1.4760895 6.988682-1.5530251 13.042664.6441118-14.342257-17.1566328-121.291741 26.3602744-114.303059 42.4415984 1.673473 3.850357 25.873223-3.5605068 32.200425-4.3262841-.400843.5099218-.142003.4097266-.92032 1.0073192-43.573211 13.873452-22.463365 74.8457883-18.735349 83.0743163-6.018031-.547495-28.6216 2.742843-40.132794-4.338809zm-133.410489 48.982912c-2.832861.545706-18.390228 4.610767-28.292659 6.917045-25.768967 5.995607 15.553772 5.65208 18.620308 4.662653 61.170741-19.801069 444.325954-54.135805 466.099078-85.378805 6.50156-9.327096-33.0812-7.824169-35.888896-9.391507 9.077378-2.665907 14.478867-12.579861 16.337483-21.062455.803483-3.664281 4.306811-5.791639 6.240922-8.9495757.307372-.5027651.794495-1.4098892 1.16478-2.0736821 2.264851-4.0704286 3.037776-8.085392 3.853841-12.787408.573403-3.3153864.51768-6.102959.492515-9.8835373-.012582-1.848243-.010785-3.6177612-.197725-4.9703959-.233675-1.6890042.041343-1.7086854.846623-3.6660695-65.313979 17.8794694-105.870984 27.4856808-186.10961 40.3732835.16537-2.757156-.095268-1.322218 1.650105-2.877032 5.525517-4.9185093 14.200255-9.2018526 21.286002-9.0318786-1.592586-5.8649956 3.053953-18.2569905 10.7149-22.9840552 14.243395-8.7867581 36.888306-14.5068286 45.142429-16.6502894 2.701643-9.4827567 4.375116-20.4827545 18.51066-22.7961893-.131217-4.3155488-1.015588-6.4912153 3.778346-7.6649301 7.58725-1.8571889 4.810112 4.2779757 8.379948 5.9437203 1.25825.5868574 5.092319-.1556603 8.347592-1.3365319-5.164219-15.2511355-7.389524-27.04017015-26.221937-27.55724877-12.472857-.34352628-31.778012 4.43363605-56.570937 9.41834547-24.800115 4.9847095-205.973789 48.952495-236.755985 72.5216183-6.9042 5.285295 1.04255 7.4645398 6.190592 7.8295365 23.980454 1.6854258 34.715127 20.4183437 24.253674 34.9770587-6.591434 9.175014-21.253646 12.20055-44.736193-10.872965-2.539868-2.363532-21.988824-17.2013625-37.707966-3.247397-12.719114 11.28627 5.581239 9.064084 4.729224 17.4107-.84123 8.255365-13.714929 2.440468-22.693444 5.958033l-.42421.177131c-15.50524 5.639557-13.003119 34.807085-11.137314 40.058385l7.25651-3.945185c-2.613566-14.945182 1.626738-28.094008 9.805365-29.777645.758546-.15566 1.473951-.212915 2.243281-.166395.3595.019681.5033.080514.140205-.209337-1.25825-1.00553-4.477574-1.765939-8.360175-.967957-1.162983.241542 17.82761-13.096939 26.360345 27.949084 4.234912 20.377192-1.234883 37.979335-11.829351 40.911833-5.432046 1.502927-7.723859-.073357-9.05401-.771145.479933.307742 1.349923 3.272446 3.535684 3.91119z" fill="#062f3c"/><g fill="#fff"><path d="m137.023928 271.237954c1.28626-2.57252 1.92938-5.059252 1.92938-7.46027s-.128624-4.266067-.385876-5.595202-.685999-2.508189-1.286253-3.537197c-1.28626-2.229517-3.215621-3.344259-5.78814-3.344259-3.172775 0-6.045378 1.157617-8.617898 3.472884-2.744021 2.401019-4.116011 5.487996-4.116011 9.261025 0 2.401018.836057 4.523315 2.508194 6.366954 1.672138 1.843639 3.794435 3.622938 6.366954 5.337951 2.57252 1.715014 5.3165 3.430001 8.232022 5.145014s5.659502 3.601499 8.232022 5.659515c5.916795 4.716286 8.875148 10.24712 8.875148 16.592668 0 4.287533-1.136179 8.253441-3.408572 11.897844-2.272392 3.644403-5.295057 6.795692-9.068086 9.453962-8.232063 5.831045-17.793117 8.746523-28.68345 8.746523-8.832317 0-15.520768-1.436302-20.0655526-4.308949-4.5447847-2.872646-6.8171429-6.495557-6.8171429-10.868841 0-7.803309 3.0441025-12.691023 9.1323989-14.663288 1.7150131-.600255 3.8801846-.900377 6.4955796-.900377s5.423687.557371 8.42496 1.672129c-1.372011 3.515777-2.058006 6.860002-2.058006 10.032776 0 6.860053 2.443857 10.290027 7.331644 10.290027 3.172775 0 6.066816-1.157616 8.682211-3.472884 2.615395-2.315267 3.923072-4.780562 3.923072-7.395957s-.836056-4.866316-2.508194-6.75283c-1.672137-1.886514-3.75156-3.580064-6.238328-5.080701-2.486769-1.500636-5.166437-2.979813-8.039084-4.437574s-5.552315-3.215623-8.039084-5.273639c-5.8310441-4.716286-8.7465226-10.847365-8.7465226-18.393423 0-4.887787 1.2004911-9.239568 3.6015094-13.055472s5.5308702-7.010068 9.3896492-9.582587c7.717559-5.23079 16.313933-7.846146 25.789381-7.846146 9.475447 0 16.506895 1.414865 21.094555 4.244636 4.58766 2.829772 6.881455 6.645619 6.881455 11.447655 0 4.201782-1.629238 7.631757-4.887762 10.290027-2.829772 2.229517-5.959624 3.344259-9.38965 3.344259s-6.345505-.428747-8.746523-1.286253zm72.45894 37.687224c2.143766 1.457761 3.215634 3.794431 3.215634 7.01008 0 3.21565-.814619 5.852443-2.443882 7.910459-1.629262 2.058015-3.772996 3.773003-6.431267 5.145013-5.488042 2.829772-11.190374 4.244636-17.10717 4.244636-5.916795 0-10.611573-.64312-14.084474-1.92938s-6.366943-3.129871-8.68221-5.530889c-4.544785-4.544785-6.817143-10.975987-6.817143-19.293801 0-12.948349 3.515724-23.366897 10.547277-31.255957 7.546058-8.489315 17.878857-12.733908 30.998707-12.733908 8.146312 0 14.234517 1.714987 18.264798 5.145013 3.001273 2.57252 4.501886 5.95962 4.501886 10.161402 0 15.092115-13.033903 22.638059-39.102102 22.638059-.343003 2.229517-.514501 4.287502-.514501 6.174016 0 3.944531.878931 6.667073 2.636819 8.167709 1.757888 1.500637 4.266057 2.250944 7.524582 2.250944s6.624188-.750307 10.097089-2.250944c3.472902-1.500636 5.938196-3.451434 7.395957-5.852452zm-26.239569-14.020162c6.088297 0 10.890261-1.886486 14.406038-5.659515 3.515777-3.601528 5.273639-8.274868 5.273639-14.020162 0-1.972265-.364435-3.494316-1.093315-4.566199-.728881-1.071884-1.822185-1.607817-3.279947-1.607817-1.457761 0-2.808313.278685-4.051698.836065-1.243384.557379-2.508187 1.779307-3.794447 3.665822-3.172774 4.287532-5.659506 11.40473-7.46027 21.351806zm129.825841 38.33035c-10.375829 0-15.563666-4.03022-15.563666-12.090781 0-3.515777.750307-8.682177 2.250943-15.499354 1.500637-6.817177 2.508192-11.597704 3.022696-14.341725 1.200509-6.259797 1.800755-10.375767 1.800755-12.348032 0-4.373283-1.629238-6.559892-4.887763-6.559892-2.143767 0-4.244626 1.479176-6.302642 4.437574-2.058016 2.958397-3.558629 7.395927-4.501887 13.312722l-7.974771 40.516982-25.08194 2.572506 6.945768-34.986091c.771756-3.85878 1.500625-7.97475 2.186631-12.348033.686005-4.373283 1.029002-6.90289 1.029002-7.588895 0-3.94453-1.457739-5.916765-4.373261-5.916765-1.972265 0-4.03025 1.457739-6.174016 4.373261-2.143767 2.915522-3.815879 7.37449-5.016389 13.377035l-7.846145 40.516982-25.339192 2.572506 13.505661-68.171429 20.96593-2.572506-2.186631 12.991159c2.229517-4.630535 5.402244-7.953323 9.518275-9.968464 4.116031-2.01514 9.389618-3.022695 15.820917-3.022695 3.687278 0 6.73138.900368 9.132399 2.701132 2.401018 1.800764 3.987381 4.158871 4.759137 7.074393 1.457761-3.001273 4.051679-5.380817 7.781833-7.138706 3.730153-1.757888 7.888998-2.636819 12.476658-2.636819s8.017634.493059 10.290027 1.479191c2.272392.986133 4.094566 2.29381 5.466576 3.923073 2.315268 3.001273 3.472885 7.245866 3.472885 12.733908 0 5.402291-1.157617 13.71998-3.472885 24.953316-1.200509 5.488042-1.800754 9.239576-1.800754 11.254717 0 2.01514.578808 3.622941 1.736442 4.82345s2.593936 1.886504 4.308949 2.058005c-.857507 2.915523-2.76543 5.230755-5.723828 6.945769-2.958397 1.715013-6.366935 2.572506-10.225714 2.572506zm51.364384-9.6469c-2.65827 6.431299-8.231979 9.6469-16.721293 9.6469-4.373284 0-7.931882-1.500614-10.675903-4.501887-2.315268-2.65827-3.472884-5.3165-3.472884-7.97477 0-6.945803 1.586363-17.192853 4.759137-30.741456l4.759137-24.953316 26.110944-2.572506-7.846146 40.645606c-1.457761 6.345549-2.18663 10.633017-2.18663 12.862534 0 4.887787 1.757862 7.417394 5.273638 7.588895zm-19.036549-76.40345c0-3.344276 1.393427-5.916757 4.180323-7.717521 2.786896-1.800763 6.195434-2.701132 10.225714-2.701132 4.030281 0 7.26732.900369 9.711213 2.701132 2.443894 1.800764 3.665822 4.373245 3.665822 7.717521 0 3.344275-1.350552 5.873881-4.051698 7.588894-2.701145 1.715014-6.066808 2.572507-10.097089 2.572507-4.03028 0-7.310194-.857493-9.839838-2.572507-2.529644-1.715013-3.794447-4.244619-3.794447-7.588894zm79.018832 86.05035c-10.375829 0-15.563666-4.03022-15.563666-12.090781.085751-2.229517.471623-5.230745 1.157628-9.003774l2.315256-11.833531c2.315268-11.147585 3.472884-17.96466 3.472884-20.451429 0-4.973538-1.457739-7.460269-4.373261-7.460269-4.887788 0-8.617885 6.388328-11.190405 19.165175l-7.588895 39.102103-25.853692 2.572506 13.377035-68.300054 21.094555-2.443881-2.058005 12.605283c4.03028-8.403564 12.219345-12.605283 24.567439-12.605283 6.002546 0 10.268577 1.264803 12.798221 3.794447s3.794448 6.624177 3.794448 12.28372c0 5.31654-1.37199 14.1916-4.116011 26.625445-1.28626 5.573792-1.92938 9.411076-1.92938 11.511967s.578808 3.751567 1.736442 4.952076 2.593936 1.886504 4.308949 2.058005c-.857507 2.915523-2.76543 5.230755-5.723828 6.945769-2.958397 1.715013-6.366935 2.572506-10.225714 2.572506zm48.920503 0c-18.865144 0-28.297574-8.875059-28.297574-26.625445 0-12.605346 3.472849-22.981019 10.418652-31.127331 7.374556-8.660816 17.450107-12.991159 30.226954-12.991159 9.261071 0 16.249644 2.143734 20.96593 6.431267 4.716286 4.287532 7.074394 10.933108 7.074394 19.936927 0 13.720104-3.687223 24.567399-11.061779 32.54221-7.203055 7.88906-16.978483 11.833531-29.326577 11.833531zm.578814-47.269811c-.814631 3.472901-1.736437 7.953306-2.765445 13.441348-1.029007 5.488041-1.543504 11.619121-1.543504 18.393423 0 2.229517.364435 4.073128 1.093316 5.530889.72888 1.457761 2.079433 2.186631 4.051698 2.186631s3.580065-.471621 4.82345-1.414879c1.243384-.943257 2.336689-2.52962 3.279946-4.759137 1.715013-3.94453 3.258502-9.582551 4.630512-16.914232 1.372011-7.331681 2.122318-12.58383 2.250944-15.756604s.192938-5.938191.192938-8.296334-.342998-4.308941-1.029003-5.852453-1.993683-2.315256-3.923073-2.315256-3.53719.600246-4.82345 1.800755-2.443876 2.958371-3.472884 5.273639c-1.029008 2.315267-1.950814 5.209308-2.765445 8.68221zm87.829668-18.714987c2.829772-3.172774 6.688493-4.759137 11.57628-4.759137 3.001273 0 5.659504.814619 7.974771 2.443881 2.315268 1.629263 3.472884 3.965933 3.472884 7.010081s-.471621 6.195437-1.414878 9.453962c-.943258 3.258525-2.143749 6.559876-3.60151 9.904151-2.915522 6.51705-6.388371 12.476631-10.418652 17.878922-5.659543 7.80331-11.211815 13.762891-16.656981 17.878922-5.445167 4.116031-11.126062 6.174016-17.042858 6.174016-4.802036 0-8.660758-.557371-11.57628-1.672129-.514504-18.007637-1.093312-30.226922-1.736442-36.658221s-1.221938-11.404763-1.736442-14.920539c-.857507-6.860053-2.572494-11.104646-5.145014-12.733909 1.972266-1.715013 3.923064-2.936941 5.852453-3.665822 1.92939-.72888 4.887743-1.093315 8.875149-1.093315 3.987405 0 7.395942 1.564926 10.225714 4.694825 2.829772 3.129898 4.523322 7.460241 5.080701 12.991159.557379 5.530917.836064 11.640559.836064 18.32911s-.257248 14.062997-.771752 22.123558c2.658271-1.886514 5.40225-5.702361 8.232022-11.447655 3.858779-7.974811 6.474135-16.764121 7.846146-26.368194.428753-2.915522.643126-5.91675.643126-9.003774 0-3.087023-.171498-5.273632-.514501-6.559892zm49.177754 65.984798c-18.865144 0-28.297574-8.875059-28.297574-26.625445 0-12.605346 3.472849-22.981019 10.418652-31.127331 7.374556-8.660816 17.450107-12.991159 30.226954-12.991159 9.261071 0 16.249644 2.143734 20.96593 6.431267 4.716286 4.287532 7.074394 10.933108 7.074394 19.936927 0 13.720104-3.687223 24.567399-11.061779 32.54221-7.203055 7.88906-16.978483 11.833531-29.326577 11.833531zm.578814-47.269811c-.814631 3.472901-1.736437 7.953306-2.765445 13.441348-1.029008 5.488041-1.543504 11.619121-1.543504 18.393423 0 2.229517.364435 4.073128 1.093315 5.530889.728881 1.457761 2.079434 2.186631 4.051699 2.186631s3.580065-.471621 4.82345-1.414879c1.243384-.943257 2.336689-2.52962 3.279946-4.759137 1.715013-3.94453 3.258502-9.582551 4.630512-16.914232s2.122317-12.58383 2.250943-15.756604.192938-5.938191.192938-8.296334-.342997-4.308941-1.029002-5.852453c-.686006-1.543512-1.993683-2.315256-3.923073-2.315256s-3.53719.600246-4.82345 1.800755-2.443876 2.958371-3.472884 5.273639c-1.029008 2.315267-1.950814 5.209308-2.765445 8.68221zm80.498024-.450189c1.200509-3.172774 1.800754-6.131127 1.800754-8.875148 0-5.059289-2.057985-7.588895-6.174016-7.588895-2.143766 0-4.094564.96468-5.852453 2.89407-1.757888 1.92939-2.636819 4.094561-2.636819 6.49558 0 1.715013.685995 3.258501 2.058005 4.630512 1.972265 1.886514 5.487989 4.373246 10.547278 7.460269 5.059288 3.087024 8.553575 5.895316 10.482965 8.42496s2.89407 5.530872 2.89407 9.003773c0 3.472902-.836056 6.79569-2.508194 9.968464s-4.008808 5.873879-7.010081 8.103396c-6.431299 4.802037-14.791862 7.203019-25.081941 7.203019-5.573792 0-10.504381-1.457739-14.791914-4.373261-4.287532-2.829772-6.431266-5.916749-6.431266-9.261024 0-3.344276 1.221928-6.002506 3.665822-7.974771 2.443893-1.972265 5.466558-2.958383 9.068086-2.958383 3.601527 0 6.517006.685995 8.746523 2.058005-1.114759 2.829772-1.67213 5.187879-1.67213 7.074394 0 5.659543 2.400983 8.489272 7.203019 8.489272 2.058016 0 3.773003-.64312 5.145014-1.92938 1.37201-1.28626 2.058005-3.044122 2.058005-5.273639 0-4.373283-3.687223-8.875125-11.061779-13.50566-6.002546-3.94453-9.689768-6.68851-11.061779-8.232022-2.315267-2.744021-3.472884-5.830998-3.472884-9.261024s.814619-6.774252 2.443882-10.032776c1.629262-3.258525 3.944495-6.04538 6.945768-8.360647 6.259797-4.802037 14.834734-7.203019 25.725067-7.203019 5.573793 0 10.011322 1.114742 13.312723 3.344259 3.3014 2.229517 4.952075 5.230744 4.952075 9.003773s-1.136179 6.731382-3.408571 8.875148c-2.272393 2.143767-5.466557 3.215634-9.582588 3.215634-2.829772 0-4.930631-.471622-6.302641-1.414879z" transform="matrix(.98768834 -.15643447 .15643447 .98768834 -39.666704 65.988474)"/><path d="m211.047012 275.399063c-.006339-.159453-.00955-.322157-.00955-.488139 0-1.08617.171501-2.34384.457335-3.715843l3.887344-18.350549h8.232021l-4.116011 19.436718c-.1715.743169-.228667 1.314837-.228667 1.829338 0 1.600671.743169 2.115172 2.34384 2.115172 1.524999 0 2.969759-1.016364 4.004973-2.57343l4.860579-22.927255h8.232021l-.743168 3.544342c2.000838-1.715004 4.173177-3.544342 6.917184-3.544342 2.572507 0 3.944511 2.115172 3.944511 4.287511 0 2.000838-1.314837 4.173177-4.116011 4.173177-3.201342 0-1.600671-3.773009-3.315675-3.773009-1.715005 0-2.744008.857502-4.173178 2.172339l-4.573345 21.72339h-8.232022l.097035-.45771c-2.659879 2.455702-5.485921 2.920169-7.361916 2.920169-2.630274 0-4.82353-1.210202-5.703293-3.939951-3.153499 4.040002-7.473249 7.425058-13.540125 7.425058-5.373681 0-8.918024-2.629674-8.918024-9.089524 0-6.574184 3.715844-20.351387 15.435041-20.351387 5.087847 0 6.28835 2.629674 6.28835 5.488015 0 6.574183-6.28835 11.66203-13.148368 12.062198-.057167.800335-.114334 1.600671-.114334 2.286673 0 3.887343 1.372004 4.802012 4.116011 4.802012 4.177945 0 6.839228-2.152682 9.477442-5.054973zm67.778287-6.572589c-3.198039 6.299778-7.413174 7.242442-10.085768 7.242442-3.201341 0-5.259347-1.829338-5.602348-5.259347-1.772171 2.629673-4.459011 5.259347-8.517855 5.259347-3.887344 0-7.603187-2.401006-7.603187-9.203858 0-7.71752 4.744846-20.008385 14.691872-20.008385 3.258508 0 4.630512 1.25767 4.630512 2.915507v.400168l.628835-3.029841h8.232022l-4.116011 19.436717c-.171501.743169-.228667 1.314837-.228667 1.829338 0 1.600671.743168 2.458174 2.343839 2.458174 1.913451 0 3.321609-1.852739 4.224476-4.184952-.51743-1.208948-.799575-2.682957-.799575-4.451745 0-6.574184 3.715843-20.29422 15.492207-20.29422 4.516178 0 6.917185 2.629673 7.260186 7.71752 2.000838-.400168 3.430009-2.858341 4.058844-3.94451h1.829338c-1.143337 2.458173-2.858341 6.002515-5.888182 7.660353-.686002 10.976029-6.402684 17.893214-13.605703 17.893214-2.871737 0-5.309811-.733892-6.944835-2.435922zm9.672154-4.084511c2.801174 0 5.602348-5.145013 6.45985-11.890698-.914669-.343001-1.372004-1.143336-1.372004-2.572506 0-1.543504.628835-2.51534 1.600671-2.972675-.114334-2.401006-.743169-3.258508-2.172339-3.258508-4.058844 0-7.431686 10.461527-7.431686 16.063875 0 3.77301.743168 4.630512 2.915508 4.630512zm-13.972175-28.223076.343001.057167c-.628835 2.68684-4.85918 5.716682-9.203858 5.716682-3.77301 0-6.45985-2.115173-9.604025-2.115173-1.486337 0-2.744007.514502-3.77301 1.486338l-.343001-.114334c1.829338-3.658676 5.202181-5.602348 9.546859-5.602348 4.173177 0 6.116849 1.886505 9.432524 1.886505 1.429171 0 2.801174-.457335 3.60151-1.314837zm-10.594802 12.514948c-4.859179 0-8.003354 10.290027-8.003354 15.663708 0 4.401845 1.829338 4.459012 2.858341 4.459012 1.657838 0 4.058844-1.715005 4.744846-5.03068l2.744007-12.919701c0-.686002-.514501-2.172339-2.34384-2.172339zm-49.377395-4.50109c0-2.51534 2.000839-4.573346 4.516179-4.573346 2.515339 0 4.573345 2.058006 4.573345 4.573346 0 2.515339-2.058006 4.516178-4.573345 4.516178-2.51534 0-4.516179-2.000839-4.516179-4.516178zm-7.875897 15.2058c0-1.429171-.343001-2.34384-1.42917-2.34384-2.915508 0-5.716682 6.116849-6.860018 11.776364 4.401845-.285834 8.289188-4.687679 8.289188-9.432524zm-26.220492 3.527086h8.346355l-.914669 4.230344h-8.346355l-4.630512 21.494723h-8.232022l8.232022-38.187433c-4.401845.1715-7.431686 2.68684-7.431686 11.833531 0 2.915507.743168 3.372842.800335 3.887343-3.94451 0-6.116849-1.42917-6.116849-5.545181 0-7.603187 5.373681-14.863372 19.493884-14.863372 2.286673 0 5.888182.686001 9.489692.686001 1.772171 0 3.544342-.1715 5.145013-.686001-.800335 2.401006-.971836 5.888182-5.430847 6.860018-2.629674 0-5.373681-.514502-8.003355-1.08617z"/></g></g></svg>