<svg height="449" viewBox="0 0 588 449" width="588" xmlns="http://www.w3.org/2000/svg"><g fill="none" fill-rule="evenodd"><path d="m460.233985 243.046227.028402.238834.026857.351052c.006875.234336.006875.469129.00048.703487l-.026023.351101-13.968104 138.725188-.031093.261487c-.346507 2.51183-2.026662 4.641296-4.388372 5.562879l-.417624.155465-142.240862 58.647008c-1.508533.187187-3.049464.029105-4.503275-.474246l-151.343161-52.399386c-3.683774-1.27543-6.290577-4.57532-6.6786-8.454283l-10.642205-106.387366c-.549019-5.488403 3.449606-10.384951 8.937008-10.943884l317.769224-32.367009c3.743589-.251427 6.98187 2.389 7.477348 6.029673zm1.713276-243.046227c11.045695 0 20 8.95538753 20 20.0010825 0 .5231672-.020527 1.0461329-.061536 1.5676903l-5.371855 68.3212369c-.378786 4.8175416-4.148357 8.6749921-8.955892 9.1646795l-22.696796 2.3113938-321.519121 24.668585c-4.707505.47903-8.87913-2.921326-9.354835-7.591581l-8.876028-104.8821699c-.433432-5.12230666 0-13.13305494 8.808599-13.5609171z" fill="#18355c"/><path d="m473.246945 244.987439c.067999.667594.068628 1.340337.001877 2.008057l-13.968104 139.725187c-.3878 3.879227-2.994686 7.179428-6.678691 8.454925l-107.802027 37.323392 97.802027-40.323392c3.589544-1.242792 6.156496-4.407788 6.644502-8.157689l.034189-.297236 13.968104-138.725187c.066751-.66772.066122-1.340463-.001877-2.008057-.276025-2.709913-1.60977-5.056399-3.549938-6.671598l2.588081-.263596c5.494419-.559648 10.40221 3.440775 10.961857 8.935194zm-368.365431-244.55957684c-2.458349 3.84153886-3.717969 8.49153497-3.303815 13.38600104l8.862542 104.7375108.017002.182956c.644844 6.33134 6.288807 10.931821 12.607388 10.288221l201.563369-15.465468-215.71537 21.973189c-5.494418.559652-10.4022119-3.440766-10.9618641-8.935184l-.0158666-.170187-8.8625417-104.7375108c-.8612539-10.1782988 6.05866-19.22008636 15.8091564-21.25952804z" fill="#007dc3"/><path d="m298.168896 306.098711.098669.224733.091012.232227.083086.23966 6.700573 20.622821.07831.225639.087051.220723c.790487 1.888356 2.536783 3.205696 4.556513 3.461013l.243636.025509.236849.014753.238806.004954h21.686942l.225954.003966.228681.012244c4.987391.359113 7.08207 6.597336 3.42943 9.908278l-.169997.148451-.175337.142175-.177982.134159-17.543048 12.746534-.196763.149269-.188887.156468c-1.538498 1.330937-2.248977 3.378299-1.877226 5.365108l.052123.247979.060853.237533.071476.236339 6.702567 20.629795.062009.202266.055866.20677c1.229013 4.879866-4.100544 8.831057-8.392545 6.334227l-.183286-.11097-.176952-.115619-.170991-.119992-17.545041-12.748527-.209848-.145595-.223221-.140387c-1.729843-1.033183-3.873261-1.074643-5.636296-.12438l-.227739.129572-.214546.135195-.209847.145595-17.545041 12.748527-.173296.121502-.179476.117053c-4.263319 2.677405-9.666579-1.170036-8.618542-6.022979l.048888-.208583.055264-.203996.061263-.199679 6.705555-20.629795.071091-.236339.060493-.237533c.459497-1.980414-.171161-4.053754-1.638911-5.443044l-.187811-.170043-.188707-.156468-.196571-.149269-17.545041-12.746534-.180402-.136011-.177751-.144314c-3.822578-3.221915-1.855789-9.501671 3.045762-10.032074l.224809-.020119.225448-.0119.222883-.003858h21.687938l.239155-.004955.237128-.014752c2.042627-.16957 3.831633-1.420803 4.696344-3.262692l.099286-.22383.086982-.220724.078284-.225638 6.70456-20.623818.081836-.23603.09098-.232342c1.89702-4.571908 8.38848-4.647991 10.436746-.228248zm-101.182642-13.635912.089815.196948.082147.204524.074188.212098 5.211558 16.039972.070513.201174.082941.204167c.613769 1.409417 1.916711 2.398438 3.428291 2.621294l.217307.026587.219835.015939.21313.005076h16.867621l.206584.004269.202579.012664c3.809351.318905 5.414252 5.065064 2.676537 7.642292l-.15083.135953-.156395.129348-.164559.124908-13.644593 9.913971-.176041.134462-.175303.148489c-1.138617 1.016-1.672879 2.544452-1.424234 4.039625l.043191.223958.052426.213376.063409.212187 5.213107 16.045397.057162.188663.049497.190634c.889239 3.73723-3.157036 6.748754-6.463134 4.910615l-.167441-.097665-.163335-.104364-.161781-.112687-13.646143-9.91552-.189675-.130609-.203486-.124908c-1.30093-.751326-2.890765-.79087-4.222106-.11863l-.219403.11863-.203486.124908-.189675.130609-13.646143 9.91552-.161851.112687-.16609.106006c-3.281091 2.001031-7.394489-.916373-6.668155-4.628253l.041131-.189404.04877-.187569.057162-.188663 5.215432-16.045397.063066-.212187.054219-.223097c.321832-1.490741-.145857-3.040862-1.225321-4.104632l-.166485-.155849-.167711-.14187-.175869-.134462-13.646143-9.913971-.164559-.124871-.15902-.13158c-2.889981-2.497636-1.402414-7.279271 2.32644-7.754001l.201892-.021275.202579-.012663.206584-.004269h16.868396l.213437-.005076.220078-.015939c1.531804-.149103 2.872519-1.080838 3.54985-2.449433l.092198-.198448.082866-.204167.070488-.201174 5.214658-16.040747.074268-.212098.082224-.204524c1.492489-3.479418 6.439797-3.545067 8.061391-.196948zm200 0 .089815.196948.082147.204524.074188.212098 5.211558 16.039972.070513.201174.082941.204167c.613769 1.409417 1.916711 2.398438 3.428291 2.621294l.217307.026587.219835.015939.21313.005076h16.867621l.206584.004269.202579.012664c3.809351.318905 5.414252 5.065064 2.676537 7.642292l-.15083.135953-.156395.129348-.164559.124908-13.644593 9.913971-.176041.134462-.175303.148489c-1.138617 1.016-1.672879 2.544452-1.424234 4.039625l.043191.223958.052426.213376.063409.212187 5.213107 16.045397.057162.188663.049497.190634c.889239 3.73723-3.157036 6.748754-6.463134 4.910615l-.167441-.097665-.163335-.104364-.161781-.112687-13.646143-9.91552-.189675-.130609-.203486-.124908c-1.30093-.751326-2.890765-.79087-4.222106-.11863l-.219403.11863-.203486.124908-.189675.130609-13.646143 9.91552-.161851.112687-.16609.106006c-3.281091 2.001031-7.394489-.916373-6.668155-4.628253l.041131-.189404.04877-.187569.057162-.188663 5.215432-16.045397.063066-.212187.054219-.223097c.321832-1.490741-.145857-3.040862-1.225321-4.104632l-.166485-.155849-.167711-.14187-.175869-.134462-13.646143-9.913971-.164559-.124871-.15902-.13158c-2.889981-2.497636-1.402414-7.279271 2.32644-7.754001l.201892-.021275.202579-.012663.206584-.004269h16.868396l.213437-.005076.220078-.015939c1.531804-.149103 2.872519-1.080838 3.54985-2.449433l.092198-.198448.082866-.204167.070488-.201174 5.214658-16.040747.074268-.212098.082224-.204524c1.492489-3.479418 6.439797-3.545067 8.061391-.196948z" fill="#fff" fill-rule="nonzero"/><path d="m537.130616 101.651062-38.497381-25.6242886 88.622386-9.0267734-36.721129 57.174603 30.638597 58.887023-42.197497 4.298463-4.193709-40.892531-3.733799 71.245129-480.7808657 48.521477 36.8629025 27.824532-87.1301208 8.874918 36.7197916-57.174673-30.63725955-58.886952 42.41792805-4.257485 2.7043096 65.013743 5.1073304-97.453669z" fill="#a1213b"/><g fill="#fff"><path d="m378.360283 157.535027 11.960033 39.545852 15.03971-42.288385 12.413675-1.260936-19.850623 50.765548-.109709.264462c-1.546893 3.65425-3.56669 5.289329-7.617333 5.700779-4.267201.433446-6.418391-.90964-7.664218-4.078519l-.160852-.433341-15.700227-47.028079zm-253.048091 9.273045-.344944 11.009075-25.4480338 2.584917-.5047169.054744-.4849477.060379-.2319116.032194-.4518215.070315c-3.4291811.576763-4.2991202 1.78845-4.5701128 5.384205l-.0165028.232771-.0280705.475597-.2935903 6.063976.0025815.867125-.0031179.966032.0047265.21351.009579.146741.0208125.189886c.3384633 2.869422 1.5782841 3.804665 5.3458279 3.53899l.2493098-.019022.5044703-.046443 11.2210043-1.13818.363563-.03193c9.026834-.749476 13.390465 2.159998 14.086667 9.013984.068301.672408.102859 1.269856.116605 1.791033l.005199.254227.001428.47017-.008136.418885-.495186 13.333062-.015031.339291c-.472118 9.550436-4.879827 13.771102-14.57096 15.000852l-.692872.081869-29.4177928 2.989555.2414965-10.998567 25.0342443-2.542886.501535-.055157.477611-.061597.234448-.034113c3.778438-.572666 5.152116-1.927755 5.465461-5.936477l.018215-.254017.027528-.508083.228634-5.980557-.019235-2.070376-.005933-.189034-.009616-.140894-.020355-.18486-.024106-.187429c-.366931-2.646616-1.664736-3.584095-5.164045-3.445276l-.247726.011423-.505708.03227-.522951.044052-10.8183452 1.097804-.362558.034938-.3628916.031085c-8.5324234.684-13.0886151-2.302395-13.7734775-9.044739-.0687783-.677109-.0995141-1.523925-.0841235-2.460858l.0079495-.35542.0123685-.362935.0168824-.369518.7029328-13.658304.0133357-.316132.017905-.323373c.505023-8.114813 4.9850592-11.701148 13.7775586-12.955416l.7625127-.101637.7060301-.082194zm38.153584 12.555143.340916-.032398c7.335788-.648472 11.37374 2.179018 12.005003 8.393692.105078 1.034473.15951 2.027639.160181 2.948848l-.004159.454466-.013206.441622-.022338.427926-.425745 12.271458-34.033252 10.668481-.188234 5.349367-.01854 1.413859.002312.307382.004037.135616c.00344.086262.008447.164139.015453.233104.237698 2.340095 1.100457 2.774852 4.532463 2.539699l.732951-.056586 1.031194-.094111 27.111251-2.751524-.306174 9.332903-31.654871 3.215384-.349613.033417-.350047.029141c-7.414519.570183-11.42753-2.154792-12.039033-8.174926-.065674-.646545-.095043-1.337605-.088107-2.073178l.008517-.446685.017231-.457369.025944-.468052 1.083385-28.433512.014889-.331966.019379-.339971c.512649-8.092018 4.457599-11.464924 12.366167-12.488897l.664155-.079495zm70.378641-7.148801.361841-.034779.362184-.030741c7.792154-.616333 11.998472 2.000485 12.718547 7.931679l.030759.276101.021256.257495.025048.546712.009148.442748.002396.78153-.004994.529613-.016438.887186-1.447715 40.280673-11.379202 1.155857 1.410575-37.559519-.009672-.734669-.009313-1.159921-.011694-.4047-.014613-.204461-.017964-.16269-.022099-.169798c-.290814-2.060388-1.268278-2.873679-4.172777-2.758922l-.475771.025851-.48398.038758-5.05102.512695-.470021.055328-.460735.063543-.224308.035096c-2.862782.46777-3.816963 1.418756-4.195326 4.058353l-.029443.217746-.049554.434617-.039625.432607-.04912.697067-1.554422 38.201219-11.275755 1.14535 1.493006-37.776922.016147-1.255816-.002094-.413665c-.003717-.19402-.01206-.368757-.027822-.523928-.22171-2.182698-1.652028-3.275103-4.28284-3.19735l-.242472.010295-.249084.016755-.248505.022495-5.068917.514882-.475183.051596-.450569.056265-.225115.03143-.430988.067806c-3.067708.523129-4.109542 1.641068-4.274407 5.017628l-.016913.464823-.004659.237747-1.440468 38.294159-11.379202 1.155857 1.698659-41.767575.017754-.319268c.479815-7.815855 4.071527-11.349058 12.499843-12.436818l.694324-.082909 10.061518-1.023437.33709-.030952c6.774939-.555114 8.846793 3.368308 9.338476 4.570475l.119679.318332.210018-.522783.118625-.27244.095959-.20567.171243-.339894.156705-.285708c.978087-1.717041 3.09702-4.26644 7.472979-5.026142l.326854-.052748.341794-.046856.344879-.039048zm31.447976-3.194369-2.006799 53.297277-11.379202 1.155857 2.006799-53.297277zm36.103105-3.66722.36193-.034655c7.908305-.710531 12.243583 2.003126 13.096424 8.131769l.036367.280926.031149.281457.018496.234526.014238.287726.011153.337835.043437 2.057453-1.551161 40.291181-11.275755 1.145349 1.410575-37.55952-.00934-1.054079-.000575-.89541-.004652-.197718-.00971-.149649-.020664-.185803-.024274-.183851c-.327351-2.284969-1.433146-3.039282-4.141134-2.934773l-.229392.010682-.456025.030891-.232772.019998-10.584219 1.073907-.485489.052642-.451103.056055-.443471.063819-.426394.071891c-2.880792.527047-3.846096 1.615943-4.036722 4.720618l-.023505.497696-.01115.464574-1.440468 38.294159-11.379202 1.155857 1.698662-41.753125.017587-.316092c.473285-7.739502 3.883021-11.342267 12.394183-12.443501l.352651-.043852.344473-.039526zm51.413304-5.222373.33546-.031904.335909-.027477c7.116267-.533366 11.045752 2.312826 11.797619 8.628801l.032917.298603.018496.234525.014238.287727.011152.337835.043438 2.057452-1.055342 28.111289-.033898.622404-.021972.313752c-.549134 7.271213-3.669053 11.175095-11.912171 12.287381l-.361633.046603-.34839.040892-.345386.036855-19.034301 1.933434-.340017.032436-.340519.028152c-7.327148.557837-11.354368-2.273207-11.996741-8.597252-.028021-.27586-.045715-.564381-.057303-.869006l-.009709-.31012-.006576-.321622-.013735-1.416792 1.086385-28.861716.017898-.329071c.465172-7.622006 4.268775-11.416683 12.404245-12.507278l.356449-.045717.351867-.041206.34766-.037069zm98.136997-9.968392.33546-.031905.335909-.027476c7.005075-.525033 10.922177 2.224707 11.760048 8.33528l.037571.29352.032917.298603.009853.110419.016221.261513.017812.488155.043438 2.057453-1.055342 28.111288-.033898.622405-.021972.313751c-.549134 7.271214-3.669053 11.175095-11.912172 12.287382l-.361632.046603-.693776.077747-19.034301 1.933434-.340017.032435-.340519.028152c-7.327148.557837-11.354368-2.273207-11.996741-8.597252-.028021-.27586-.045715-.564381-.057303-.869006l-.009709-.31012-.006576-.321621-.013735-1.416793 1.086385-28.861715.017898-.329072c.465172-7.622006 4.268775-11.416683 12.404245-12.507278l.356449-.045716.699527-.078276zm56.75808-5.765276-.346574 9.964094-23.699291 2.40854-.419738.053309-.214643.032376c-2.30881.369845-2.97773 1.210957-3.162263 3.374598l-.015916.206742-.022049.389443-.008081.199646-.252911 3.683702.00057.797274-.004602.331893-.014945.640119.001223.113781.01792.152112c.200904 1.489295 1.060345 2.02708 3.255745 1.904462l.224018-.014452.468099-.041115 13.667176-1.386649.317652-.027407c6.515007-.527596 9.943325 1.357964 10.503194 6.869765.011558.113792.020346.234892.027066.363871l.008615.199449.010031.436078.010088 1.6078-.511438 10.398899-.019172.304357-.023008.304438c-.537437 6.546023-3.621869 9.940175-11.185651 10.965542l-.35784.046332-.353551.041659-.354699.037906-27.206638 2.76355.243127-9.953586 23.732731-2.411574.484873-.056841.450777-.061659.229041-.035465c2.764883-.447558 3.404206-1.291382 3.558259-3.541414l.01175-.190779.016083-.358045.21088-4.097491.020873-.232479.017776-.244962c.026043-.418571.031644-.88839-.020895-1.405626-.152363-1.499986-1.340168-2.208101-3.563415-2.124347l-.233685.011489-.241072.017139-.248459.022788-11.735475 1.190698-.695599.059804-.683205.047091-.333005.018346c-6.933212.348629-10.098932-1.615453-10.626949-6.81368-.010508-.103447-.019018-.215807-.026009-.337031l-.016894-.390213-.010655-.443105-.023258-1.643743.46053-9.871155.01643-.30429.020243-.30783c.497448-6.917727 3.635608-9.885194 11.247853-10.867488l.343843-.042663.33985-.038948zm-158.75886 26.055027-12.13117 1.233451-.231979.027337c-3.574149.442553-4.493597 1.5838-4.700099 4.86055l-.012732.221629-.018965.442821-.016613.700646-.854751 22.452954-.010952.647797-.018182.818367.001133.235043.010247.18186c.233711 2.300846 1.380147 2.983031 4.181631 2.803008l.230789-.016471.465002-.042014 11.999886-1.218904.456563-.050364.226543-.028393c2.950284-.386617 3.882879-1.198436 4.282532-3.625188l.063134-.428748.048707-.407509.043024-.433978.054216-.672666.895152-23.084146.019646-.187562.007502-.199127-.000852-.139266-.013339-.294414-.018073-.234922-.049054-.506926-.023438-.195038c-.311897-2.237719-1.968869-3.156088-4.885508-2.859827zm98.136997-9.968392-12.13117 1.23345-.231979.027337c-3.57415.442554-4.493598 1.5838-4.700099 4.86055l-.012732.221629-.018965.442821-.012483.462558-.00413.238088-.854751 22.452954-.010952.647797-.018182.818367.001133.235043.010247.18186c.233711 2.300847 1.380147 2.983031 4.181631 2.803008l.230789-.016471.465002-.042014 11.999886-1.218904.456563-.050364.226265-.028356c3.410422-.446866 4.124871-1.46181 4.436481-4.882326l.05541-.6858.895152-23.084145.019646-.187563.007501-.199126-.000851-.139266-.013339-.294415-.018073-.234922-.049054-.506925-.023438-.195038c-.311897-2.23772-1.968869-3.156089-4.885508-2.859827zm-299.635894 29.913331-.440033.048559-.434024.056869c-3.235886.463168-4.380352 1.578799-4.548419 5.250582l-.009588.243108-.010966.49304-.357082 9.860647 23.174548-7.475202.168848-4.51128.009904-1.184072-.005677-.527301c-.006139-.250986-.017996-.482036-.039011-.688931-.239562-2.358439-1.540943-3.100034-4.419577-2.889152l-.236869.019173zm115.124809-37.530912.152404-.011045c1.365569-.059238 2.556572.957234 2.696473 2.334532l.011326.161206.001287.161599-.121156 5.238038-.008257.156137c-.098386 1.187961-.996163 2.158746-2.172827 2.349521l-.155016.020414-6.166585.626379-.152404.011045c-1.365569.059238-2.556572-.957234-2.696473-2.334532l-.011326-.161207-.001287-.161598.121156-5.238038.008257-.156137c.098386-1.187961.996163-2.158746 2.172827-2.349522l.155016-.020414z"/><path d="m201.568156 43.6535344-.668177 11.3633896-22.342314 1.7191474c-1.760353.1354518-2.40297.5947065-2.572497 2.4152971l-.016923.2079428-.308815 5.5328413 23.802755-1.8315222-.741199 11.3690084-23.802755 1.8315222-1.145468 18.525191-15.772763 1.213648 2.380771-38.7467455c.51996-7.3481725 3.280237-10.5920428 11.668832-11.3263739zm46.766973-3.5985224-.668177 11.3633895-21.977204 1.6910537-.387487.0355038c-1.590107.1735362-2.044307.6291442-2.187253 2.3865168l-.362825 5.2229063 23.802754-1.8315222-.741199 11.3690083-23.802755 1.8315222-.331289 5.2407531c-.056166.2246849-.033691.5167731-.005598.8818834.110977 1.4422755 1.005174 1.5217684 2.82488 1.3969081l21.831708-1.6781325-.673795 11.2903675-27.89199 2.1461717c-7.594294.584349-11.604953-1.8983145-12.037596-7.5210125l-.011239-.235006-.004557-.3030696.004516-1.5177793 1.718191-28.2652393c.381542-7.2635027 3.351054-10.5226623 11.741547-11.2584533l.391113-.0321732zm23.475373-1.8063315-3.043351 49.2282517-15.626719 1.2024106 3.043351-49.2282518zm41.947518-3.2276857c6.094022-.4689094 9.789401 1.9374357 10.288692 6.7937539l.024446.2723132.035557.4770131.02555.4364649c.008957.2059013.011199.3916602.002283.5498715l-.0128.1487544-.679436 10.2624401c-.462959 6.1636233-3.615235 9.5622983-9.451517 10.265065l-.333222.0369005 11.223375 18.8956395-17.598315 1.3541165-6.100421-11.5036639-.465494-.8699611-.435459-.8357015c-1.892178-3.6837355-2.875907-6.3301345-3.003144-7.9837306-.263837-3.4288616 1.504294-6.0299385 5.751408-6.4622811l.286818-.0255952 1.533463-.1179935c1.901181-.1462879 2.444356-1.0760004 2.601563-2.9956557l.015928-.2173793.302001-4.7965979c.015362-.281484.021423-.5463861.001196-.8092655-.086571-1.1250805-.59503-1.5365576-2.393118-1.4300276l-10.799008.8291097-2.335842 38.3760166-15.62672 1.2024105 3.043351-49.2282518zm84.183607-6.4775755 19.567476-1.5056352c8.17847-.629299 11.6555 1.6006075 12.088143 7.2233055.052976.6884936.052304 1.3811153.005059 2.1698346l-1.858014 28.1624971c-.51959 7.3429536-3.684531 10.8323739-11.584372 11.5398847l-.37977.0315925-19.71352 1.5168727c-7.667316.5899678-11.756615-1.960099-12.189258-7.582797l-.014701-.2979751-.005805-.36565.003606-1.4652519 1.740666-27.9731511c.224599-3.7634558 1.258081-6.5607904 3.033042-8.3133628 1.643251-1.6867139 4.637504-2.7241466 8.851308-3.1021837zm-39.75317 2.6915677c6.27391-.482751 9.618639 1.2438106 11.33064 6.958836l11.83724 40.6198436-16.502285 1.2697815-2.169718-9.3086657-13.99272 1.0766812-3.457789 9.7416788-16.958569 1.3048907 17.304635-42.5394324c2.569922-6.3679135 6.144538-8.6262338 12.608566-9.1236137zm45.656978 8.1661353c-1.840156.1415922-2.373844.6305658-2.541823 2.4351253l-.030741.4071807-1.431872 21.4854043c-.056166.2246849-.028073.5897952.000021.9549054.086154 1.1196715.646894 1.393297 2.043129 1.3103049l.186885-.0128073 7.372794-.5673055c1.901181-.146288 2.595828-.8827515 2.768892-2.7231289l.017119-.2090554 1.291447-21.4011448c.056166-.2246849.033744-.5167731-.00564-1.0279275-.082985-1.0784795-.477051-1.319374-1.915598-1.2439901l-.185311.0110325zm-46.648315 5.7930239-5.979757 15.7386305 10.038256-.7724017zm-3.678433-28.0703549c1.499386-.1153715 3.282581.1313408 5.349584.7401368l.447273.1359984c2.258087.7077024 3.825262 1.0278411 4.774549.9547975 1.591112-.1224294 3.701464-1.2077737 4.922151-2.0858707l.194968-.1442299.825696-.7246234 3.482713 5.1676448c-3.066861 3.1007033-6.027031 4.7241094-8.801869 4.9376216-1.431233.1101273-3.209884-.1369346-5.276584-.7457539l-.447252-.136c-2.258086-.7077024-3.898284-1.0222224-4.920592-.9435601-1.45679.1120939-3.628345 1.2735748-4.785767 2.2178079l-.174071.1470994-.904337.65722-3.707398-5.2238106.380156-.3431788.445572-.4110866.234305-.2071291.26389-.223408c.607516-.5023229 1.459466-1.1254846 2.790533-1.9098351l.615057-.3543629c1.617701-.9324736 3.050048-1.4099587 4.291423-1.5054773z" fill-rule="nonzero"/></g></g></svg>