<svg height="449" viewBox="0 0 588 449" width="588" xmlns="http://www.w3.org/2000/svg"><g fill="none" fill-rule="evenodd"><path d="m452.756637 237.016554c3.743589-.251427 6.98187 2.389 7.477348 6.029673l.028402.238834.026857.351052c.009084.234336.009084.469129.00048.703487l-.026023.351101-13.968104 138.725188-.031093.261487c-.346507 2.51183-2.026662 4.641296-4.388372 5.562879l-.255619.094081-.162005.061384-142.240862 58.647008c-1.508533.187187-3.049464.029105-4.503275-.474246l-151.343161-52.399386c-3.683774-1.27543-6.290577-4.57532-6.6786-8.454283l-10.642205-106.387366c-.549019-5.488403 3.449606-10.384951 8.937008-10.943884z" fill="#18355c"/><path d="m473.246945 244.987439c.067999.667594.068628 1.340337.001877 2.008057l-13.968104 139.725187c-.3878 3.879227-2.994686 7.179428-6.678691 8.454925l-107.802027 37.323392 97.802027-40.323392c3.589544-1.242792 6.156496-4.407788 6.644502-8.157689l.034189-.297236 13.968104-138.725187c.066751-.66772.066122-1.340463-.001877-2.008057-.276025-2.709913-1.60977-5.056399-3.549938-6.671598l2.588081-.263596c5.494419-.559648 10.40221 3.440775 10.961857 8.935194zm-368.365431-244.55957684c-2.458349 3.84153886-3.717969 8.49153497-3.303815 13.38600104l8.862542 104.7375108.017002.182956c.644844 6.33134 6.288807 10.931821 12.607388 10.288221l201.563369-15.465468-215.71537 21.973189c-5.494418.559652-10.4022119-3.440766-10.9618641-8.935184l-.0158666-.170187-8.8625417-104.7375108c-.8612539-10.1782988 6.05866-19.22008636 15.8091564-21.25952804z" fill="#1e88e5"/><path d="m298.168896 306.098711.098669.224733.091012.232227.083086.23966 6.700573 20.622821.07831.225639.087051.220723c.790487 1.888356 2.536783 3.205696 4.556513 3.461013l.243636.025509.236849.014753.238806.004954h21.686942l.225954.003966.228681.012244c4.987391.359113 7.08207 6.597336 3.42943 9.908278l-.169997.148451-.175337.142175-.177982.134159-17.543048 12.746534-.196763.149269-.188887.156468c-1.538498 1.330937-2.248977 3.378299-1.877226 5.365108l.052123.247979.060853.237533.071476.236339 6.702567 20.629795.062009.202266.055866.20677c1.229013 4.879866-4.100544 8.831057-8.392545 6.334227l-.183286-.11097-.176952-.115619-.170991-.119992-17.545041-12.748527-.209848-.145595-.223221-.140387c-1.729843-1.033183-3.873261-1.074643-5.636296-.12438l-.227739.129572-.214546.135195-.209847.145595-17.545041 12.748527-.173296.121502-.179476.117053c-4.263319 2.677405-9.666579-1.170036-8.618542-6.022979l.048888-.208583.055264-.203996.061263-.199679 6.705555-20.629795.071091-.236339.060493-.237533c.459497-1.980414-.171161-4.053754-1.638911-5.443044l-.187811-.170043-.188707-.156468-.196571-.149269-17.545041-12.746534-.180402-.136011-.177751-.144314c-3.822578-3.221915-1.855789-9.501671 3.045762-10.032074l.224809-.020119.225448-.0119.222883-.003858h21.687938l.239155-.004955.237128-.014752c2.042627-.16957 3.831633-1.420803 4.696344-3.262692l.099286-.22383.086982-.220724.078284-.225638 6.70456-20.623818.081836-.23603.09098-.232342c1.89702-4.571908 8.38848-4.647991 10.436746-.228248zm-101.182642-13.635912.089815.196948.082147.204524.074188.212098 5.211558 16.039972.070513.201174.082941.204167c.613769 1.409417 1.916711 2.398438 3.428291 2.621294l.217307.026587.219835.015939.21313.005076h16.867621l.206584.004269.202579.012664c3.809351.318905 5.414252 5.065064 2.676537 7.642292l-.15083.135953-.156395.129348-.164559.124908-13.644593 9.913971-.176041.134462-.175303.148489c-1.138617 1.016-1.672879 2.544452-1.424234 4.039625l.043191.223958.052426.213376.063409.212187 5.213107 16.045397.057162.188663.049497.190634c.889239 3.73723-3.157036 6.748754-6.463134 4.910615l-.167441-.097665-.163335-.104364-.161781-.112687-13.646143-9.91552-.189675-.130609-.203486-.124908c-1.30093-.751326-2.890765-.79087-4.222106-.11863l-.219403.11863-.203486.124908-.189675.130609-13.646143 9.91552-.161851.112687-.16609.106006c-3.281091 2.001031-7.394489-.916373-6.668155-4.628253l.041131-.189404.04877-.187569.057162-.188663 5.215432-16.045397.063066-.212187.054219-.223097c.321832-1.490741-.145857-3.040862-1.225321-4.104632l-.166485-.155849-.167711-.14187-.175869-.134462-13.646143-9.913971-.164559-.124871-.15902-.13158c-2.889981-2.497636-1.402414-7.279271 2.32644-7.754001l.201892-.021275.202579-.012663.206584-.004269h16.868396l.213437-.005076.220078-.015939c1.531804-.149103 2.872519-1.080838 3.54985-2.449433l.092198-.198448.082866-.204167.070488-.201174 5.214658-16.040747.074268-.212098.082224-.204524c1.492489-3.479418 6.439797-3.545067 8.061391-.196948zm200 0 .089815.196948.082147.204524.074188.212098 5.211558 16.039972.070513.201174.082941.204167c.613769 1.409417 1.916711 2.398438 3.428291 2.621294l.217307.026587.219835.015939.21313.005076h16.867621l.206584.004269.202579.012664c3.809351.318905 5.414252 5.065064 2.676537 7.642292l-.15083.135953-.156395.129348-.164559.124908-13.644593 9.913971-.176041.134462-.175303.148489c-1.138617 1.016-1.672879 2.544452-1.424234 4.039625l.043191.223958.052426.213376.063409.212187 5.213107 16.045397.057162.188663.049497.190634c.889239 3.73723-3.157036 6.748754-6.463134 4.910615l-.167441-.097665-.163335-.104364-.161781-.112687-13.646143-9.91552-.189675-.130609-.203486-.124908c-1.30093-.751326-2.890765-.79087-4.222106-.11863l-.219403.11863-.203486.124908-.189675.130609-13.646143 9.91552-.161851.112687-.16609.106006c-3.281091 2.001031-7.394489-.916373-6.668155-4.628253l.041131-.189404.04877-.187569.057162-.188663 5.215432-16.045397.063066-.212187.054219-.223097c.321832-1.490741-.145857-3.040862-1.225321-4.104632l-.166485-.155849-.167711-.14187-.175869-.134462-13.646143-9.913971-.164559-.124871-.15902-.13158c-2.889981-2.497636-1.402414-7.279271 2.32644-7.754001l.201892-.021275.202579-.012663.206584-.004269h16.868396l.213437-.005076.220078-.015939c1.531804-.149103 2.872519-1.080838 3.54985-2.449433l.092198-.198448.082866-.204167.070488-.201174 5.214658-16.040747.074268-.212098.082224-.204524c1.492489-3.479418 6.439797-3.545067 8.061391-.196948z" fill="#fff" fill-rule="nonzero"/><path d="m461.947261 0c11.045695 0 20 8.95538753 20 20.0010825 0 .5231672-.020527 1.0461329-.061536 1.5676903l-5.371855 68.3212369c-.378786 4.8175416-4.148357 8.6749921-8.955892 9.1646795l-22.696796 2.3113938-321.519121 24.668585c-4.707505.47903-8.87913-2.921326-9.354835-7.591581l-8.876028-104.8821699c-.433432-5.12230666 0-13.13305494 8.808599-13.5609171z" fill="#18355c"/><path d="m537.130616 101.651062-38.497381-25.6242886 88.622386-9.0267734-36.721129 57.174603 30.638597 58.887023-42.197497 4.298463-4.193709-40.892531-3.733799 71.245129-480.7808657 48.521477 36.8629025 27.824532-87.1301208 8.874918 36.7197916-57.174673-30.63725955-58.886952 42.41792805-4.257485 2.7043096 65.013743 5.1073304-97.453669z" fill="#a1213b"/><g fill="#fff"><path d="m378.360283 157.535027 11.960033 39.545852 15.03971-42.288385 12.413675-1.260936-19.850623 50.765548-.109709.264462c-1.546893 3.65425-3.56669 5.289329-7.617333 5.700779-4.267201.433446-6.418391-.90964-7.664218-4.078519l-.160852-.433341-15.700227-47.028079zm-253.048091 9.273045-.344944 11.009075-25.4480338 2.584917-.5047169.054744-.4849477.060379-.2319116.032194-.4518215.070315c-3.4291811.576763-4.2991202 1.78845-4.5701128 5.384205l-.0165028.232771-.0280705.475597-.2935903 6.063976.0025815.867125-.0031179.966032.0047265.21351.009579.146741.0208125.189886c.3384633 2.869422 1.5782841 3.804665 5.3458279 3.53899l.2493098-.019022.5044703-.046443 11.2210043-1.13818.363563-.03193c9.026834-.749476 13.390465 2.159998 14.086667 9.013984.068301.672408.102859 1.269856.116605 1.791033l.005199.254227.001428.47017-.008136.418885-.495186 13.333062-.015031.339291c-.472118 9.550436-4.879827 13.771102-14.57096 15.000852l-.692872.081869-29.4177928 2.989555.2414965-10.998567 25.0342443-2.542886.501535-.055157.477611-.061597.234448-.034113c3.778438-.572666 5.152116-1.927755 5.465461-5.936477l.018215-.254017.027528-.508083.228634-5.980557-.019235-2.070376-.005933-.189034-.009616-.140894-.020355-.18486-.024106-.187429c-.366931-2.646616-1.664736-3.584095-5.164045-3.445276l-.247726.011423-.505708.03227-.522951.044052-10.8183452 1.097804-.362558.034938-.3628916.031085c-8.5324234.684-13.0886151-2.302395-13.7734775-9.044739-.0687783-.677109-.0995141-1.523925-.0841235-2.460858l.0079495-.35542.0123685-.362935.0168824-.369518.7029328-13.658304.0133357-.316132.017905-.323373c.505023-8.114813 4.9850592-11.701148 13.7775586-12.955416l.7625127-.101637.7060301-.082194zm38.153584 12.555143.340916-.032398c7.335788-.648472 11.37374 2.179018 12.005003 8.393692.105078 1.034473.15951 2.027639.160181 2.948848l-.004159.454466-.013206.441622-.022338.427926-.425745 12.271458-34.033252 10.668481-.188234 5.349367-.01854 1.413859.002312.307382.004037.135616c.00344.086262.008447.164139.015453.233104.237698 2.340095 1.100457 2.774852 4.532463 2.539699l.732951-.056586 1.031194-.094111 27.111251-2.751524-.306174 9.332903-31.654871 3.215384-.349613.033417-.350047.029141c-7.414519.570183-11.42753-2.154792-12.039033-8.174926-.065674-.646545-.095043-1.337605-.088107-2.073178l.008517-.446685.017231-.457369.025944-.468052 1.083385-28.433512.014889-.331966.019379-.339971c.512649-8.092018 4.457599-11.464924 12.366167-12.488897l.664155-.079495zm70.378641-7.148801.361841-.034779.362184-.030741c7.792154-.616333 11.998472 2.000485 12.718547 7.931679l.030759.276101.021256.257495.025048.546712.009148.442748.002396.78153-.004994.529613-.016438.887186-1.447715 40.280673-11.379202 1.155857 1.410575-37.559519-.009672-.734669-.009313-1.159921-.011694-.4047-.014613-.204461-.017964-.16269-.022099-.169798c-.290814-2.060388-1.268278-2.873679-4.172777-2.758922l-.475771.025851-.48398.038758-5.05102.512695-.470021.055328-.460735.063543-.224308.035096c-2.862782.46777-3.816963 1.418756-4.195326 4.058353l-.029443.217746-.049554.434617-.039625.432607-.04912.697067-1.554422 38.201219-11.275755 1.14535 1.493006-37.776922.016147-1.255816-.002094-.413665c-.003717-.19402-.01206-.368757-.027822-.523928-.22171-2.182698-1.652028-3.275103-4.28284-3.19735l-.242472.010295-.249084.016755-.248505.022495-5.068917.514882-.475183.051596-.450569.056265-.225115.03143-.430988.067806c-3.067708.523129-4.109542 1.641068-4.274407 5.017628l-.016913.464823-.004659.237747-1.440468 38.294159-11.379202 1.155857 1.698659-41.767575.017754-.319268c.479815-7.815855 4.071527-11.349058 12.499843-12.436818l.694324-.082909 10.061518-1.023437.33709-.030952c6.774939-.555114 8.846793 3.368308 9.338476 4.570475l.119679.318332.210018-.522783.118625-.27244.095959-.20567.171243-.339894.156705-.285708c.978087-1.717041 3.09702-4.26644 7.472979-5.026142l.326854-.052748.341794-.046856.344879-.039048zm31.447976-3.194369-2.006799 53.297277-11.379202 1.155857 2.006799-53.297277zm36.103105-3.66722.36193-.034655c7.908305-.710531 12.243583 2.003126 13.096424 8.131769l.036367.280926.031149.281457.018496.234526.014238.287726.011153.337835.043437 2.057453-1.551161 40.291181-11.275755 1.145349 1.410575-37.55952-.00934-1.054079-.000575-.89541-.004652-.197718-.00971-.149649-.020664-.185803-.024274-.183851c-.327351-2.284969-1.433146-3.039282-4.141134-2.934773l-.229392.010682-.456025.030891-.232772.019998-10.584219 1.073907-.485489.052642-.451103.056055-.443471.063819-.426394.071891c-2.880792.527047-3.846096 1.615943-4.036722 4.720618l-.023505.497696-.01115.464574-1.440468 38.294159-11.379202 1.155857 1.698662-41.753125.017587-.316092c.473285-7.739502 3.883021-11.342267 12.394183-12.443501l.352651-.043852.344473-.039526zm51.413304-5.222373.33546-.031904.335909-.027477c7.116267-.533366 11.045752 2.312826 11.797619 8.628801l.032917.298603.018496.234525.014238.287727.011152.337835.043438 2.057452-1.055342 28.111289-.033898.622404-.021972.313752c-.549134 7.271213-3.669053 11.175095-11.912171 12.287381l-.361633.046603-.34839.040892-.345386.036855-19.034301 1.933434-.340017.032436-.340519.028152c-7.327148.557837-11.354368-2.273207-11.996741-8.597252-.028021-.27586-.045715-.564381-.057303-.869006l-.009709-.31012-.006576-.321622-.013735-1.416792 1.086385-28.861716.017898-.329071c.465172-7.622006 4.268775-11.416683 12.404245-12.507278l.356449-.045717.351867-.041206.34766-.037069zm98.136997-9.968392.33546-.031905.335909-.027476c7.005075-.525033 10.922177 2.224707 11.760048 8.33528l.037571.29352.032917.298603.009853.110419.016221.261513.017812.488155.043438 2.057453-1.055342 28.111288-.033898.622405-.021972.313751c-.549134 7.271214-3.669053 11.175095-11.912172 12.287382l-.361632.046603-.693776.077747-19.034301 1.933434-.340017.032435-.340519.028152c-7.327148.557837-11.354368-2.273207-11.996741-8.597252-.028021-.27586-.045715-.564381-.057303-.869006l-.009709-.31012-.006576-.321621-.013735-1.416793 1.086385-28.861715.017898-.329072c.465172-7.622006 4.268775-11.416683 12.404245-12.507278l.356449-.045716.699527-.078276zm56.75808-5.765276-.346574 9.964094-23.699291 2.40854-.419738.053309-.214643.032376c-2.30881.369845-2.97773 1.210957-3.162263 3.374598l-.015916.206742-.022049.389443-.008081.199646-.252911 3.683702.00057.797274-.004602.331893-.014945.640119.001223.113781.01792.152112c.200904 1.489295 1.060345 2.02708 3.255745 1.904462l.224018-.014452.468099-.041115 13.667176-1.386649.317652-.027407c6.515007-.527596 9.943325 1.357964 10.503194 6.869765.011558.113792.020346.234892.027066.363871l.008615.199449.010031.436078.010088 1.6078-.511438 10.398899-.019172.304357-.023008.304438c-.537437 6.546023-3.621869 9.940175-11.185651 10.965542l-.35784.046332-.353551.041659-.354699.037906-27.206638 2.76355.243127-9.953586 23.732731-2.411574.484873-.056841.450777-.061659.229041-.035465c2.764883-.447558 3.404206-1.291382 3.558259-3.541414l.01175-.190779.016083-.358045.21088-4.097491.020873-.232479.017776-.244962c.026043-.418571.031644-.88839-.020895-1.405626-.152363-1.499986-1.340168-2.208101-3.563415-2.124347l-.233685.011489-.241072.017139-.248459.022788-11.735475 1.190698-.695599.059804-.683205.047091-.333005.018346c-6.933212.348629-10.098932-1.615453-10.626949-6.81368-.010508-.103447-.019018-.215807-.026009-.337031l-.016894-.390213-.010655-.443105-.023258-1.643743.46053-9.871155.01643-.30429.020243-.30783c.497448-6.917727 3.635608-9.885194 11.247853-10.867488l.343843-.042663.33985-.038948zm-158.75886 26.055027-12.13117 1.233451-.231979.027337c-3.574149.442553-4.493597 1.5838-4.700099 4.86055l-.012732.221629-.018965.442821-.016613.700646-.854751 22.452954-.010952.647797-.018182.818367.001133.235043.010247.18186c.233711 2.300846 1.380147 2.983031 4.181631 2.803008l.230789-.016471.465002-.042014 11.999886-1.218904.456563-.050364.226543-.028393c2.950284-.386617 3.882879-1.198436 4.282532-3.625188l.063134-.428748.048707-.407509.043024-.433978.054216-.672666.895152-23.084146.019646-.187562.007502-.199127-.000852-.139266-.013339-.294414-.018073-.234922-.049054-.506926-.023438-.195038c-.311897-2.237719-1.968869-3.156088-4.885508-2.859827zm98.136997-9.968392-12.13117 1.23345-.231979.027337c-3.57415.442554-4.493598 1.5838-4.700099 4.86055l-.012732.221629-.018965.442821-.012483.462558-.00413.238088-.854751 22.452954-.010952.647797-.018182.818367.001133.235043.010247.18186c.233711 2.300847 1.380147 2.983031 4.181631 2.803008l.230789-.016471.465002-.042014 11.999886-1.218904.456563-.050364.226265-.028356c3.410422-.446866 4.124871-1.46181 4.436481-4.882326l.05541-.6858.895152-23.084145.019646-.187563.007501-.199126-.000851-.139266-.013339-.294415-.018073-.234922-.049054-.506925-.023438-.195038c-.311897-2.23772-1.968869-3.156089-4.885508-2.859827zm-299.635894 29.913331-.440033.048559-.434024.056869c-3.235886.463168-4.380352 1.578799-4.548419 5.250582l-.009588.243108-.010966.49304-.357082 9.860647 23.174548-7.475202.168848-4.51128.009904-1.184072-.005677-.527301c-.006139-.250986-.017996-.482036-.039011-.688931-.239562-2.358439-1.540943-3.100034-4.419577-2.889152l-.236869.019173zm115.124809-37.530912.152404-.011045c1.365569-.059238 2.556572.957234 2.696473 2.334532l.011326.161206.001287.161599-.121156 5.238038-.008257.156137c-.098386 1.187961-.996163 2.158746-2.172827 2.349521l-.155016.020414-6.166585.626379-.152404.011045c-1.365569.059238-2.556572-.957234-2.696473-2.334532l-.011326-.161207-.001287-.161598.121156-5.238038.008257-.156137c.098386-1.187961.996163-2.158746 2.172827-2.349522l.155016-.020414z"/><path d="m184.529574 37.1002159v10.5176973h-29.782164l-.422809.00631-.205699.0084037c-2.285384.1159644-3.088356.9498733-3.167436 3.6395034l-.005215.2496557-.001393 4.8905405h32.532946v10.4367912h-32.532946v18.6665398h-12.944858v-36.6032585l.002848-.354425c.119593-7.3866244 4.005808-11.2260174 11.58805-11.4475832l.363853-.0078159.342864-.002359zm83.524899 0v48.4154416h-12.944858v-48.4154416zm50.706987 0 .3357.0029643c6.780401.1204363 10.891778 3.9057093 11.140854 10.4433126l.00923.3291696.002778.3085883v6.1703826l-.004061.3154847c-.183696 7.0927928-9.583435 10.3381613-17.481875 10.5179099l-.354651.0060023-.348063.0019212 15.973416 20.3197061h-14.643871l-13.303539-17.0834909-.23598-.3846504c-1.222556-2.0469897-1.867559-4.0223128-1.867559-5.9259684 0-2.9962082 1.664401-4.605416 4.928996-4.8276228l.275752-.0153066.461506-.0111767.371187.0019454.589107.0162828.610354.0270297 1.469.0697163c3.98705.1662286 10.199417.1425849 10.365229-3.2424659l.00551-.2261766.001968-1.8460652-.004735-.4704029-.006961-.2515852c-.108323-3.1261038-.992524-4.0452348-3.622238-4.1262896l-.217065-.0047625-20.267789-.0012817v38.3022712h-12.863953v-48.4154416zm45.201566 0 .341338.0019201c5.29238.0603824 8.000874 1.5550913 9.99735 5.9261712l.126486.2829253.113191.2635595 17.032961 41.9408655h-14.433193l-3.944475-10.6470808h-18.288022l-3.854828 10.6470808h-14.791782l16.943314-41.8689257.125079-.2902669c1.976083-4.4847556 4.780492-6.1272484 9.985022-6.2488681l.342845-.005789zm-120.878645 0v10.5176973h-29.782163l-.42281.00631-.205699.0084037c-2.285383.1159644-3.088356.9498733-3.167435 3.6395034l-.005216.2496557-.001392 4.5669184h32.532945v10.3558872h-32.532945v4.4255225l.002145.2448159c.053016 2.9614382 1.09394 3.872555 3.701837 3.9558178l.220964.0050484 29.659769.0013968v10.4367921h-33.746526l-.365872-.0026812c-7.633859-.1126018-12.1457-3.7716008-12.405319-10.906359l-.009144-.3423773-.002713-.3180499v-25.0321187l.002848-.354425c.119593-7.3866244 4.005809-11.2260174 11.588051-11.4475832l.363852-.0078159.342865-.002359zm191.970761 0 .379824.0020595c8.660785.094787 12.271442 3.4660015 12.547739 11.074473l.010032.33842.007263.6399467v24.3848765l-.002928.3564433c-.124915 7.5462957-4.246564 11.3919937-12.294126 11.6079152l-.380105.007463-.348605.002172h-24.280598l-.388877-.0026573c-8.233565-.113382-12.469291-3.8555404-12.707176-11.2972957l-.008223-.3515422-.002393-.3224983v-24.3848765l.002164-.345034c.099631-7.8726842 3.646145-11.5112971 12.068824-11.7019426l.374757-.0061764zm-20.558952 10.5176973-.226962.0017906c-2.675817.0432723-3.64107.8814985-3.730446 3.6704017l-.005438.2369488-.001517 19.5048704.001848.2329541c.045785 2.818943.951028 3.7229766 3.680834 3.8058874l.231728.0050319 16.563637.0013949.395766-.004194.389676-.014261.206876-.0128773c2.097371-.1524129 2.884327-.9131211 2.965014-3.3974714l.005514-.2379916.001516-19.666311-.004464-.4177194-.016632-.4409485-.013759-.2137736c-.166548-2.2332585-.97605-2.9714059-3.399923-3.047084l-.231998-.0051794zm-50.622811 1.4242987-6.364949 16.9777774h12.998839zm6.804552-23.0422119 2.441009 3.5676284-.281655.2816549-.203457.1757264-.256514.2096717-.312813.2411215-.19183.1407739c-1.121469.8079272-2.815502 1.7676004-4.433771 1.7676004-.774551 0-1.644953-.1917013-2.637564-.575104l-.335433-.134901-.579543-.2513578c-1.133325-.485711-1.98332-.7285664-2.549982-.7285664-.858168 0-2.036506.533618-2.791761 1.0434137l-.166441.1169686-.140002.1070646-.516367.4224823-2.581837-3.6145709.844965-.6571947.176873-.1360569c1.168733-.8748494 3.233498-1.9763547 4.705145-1.9763547.813278 0 1.722407.1917014 2.753746.5751041l.348342.1349009.830329.3452619.256913.1013697c.919981.3555284 1.596852.5332927 2.007077.5332927.858167 0 2.036505-.533618 2.791761-1.0434138l.166441-.1169686.140002-.1070646z" fill-rule="nonzero" transform="matrix(.99705275 -.07671903 .07671903 .99705275 -3.414143 22.643007)"/></g></g></svg>