<svg viewBox="0 0 550 318" xmlns="http://www.w3.org/2000/svg"><g fill="none" fill-rule="evenodd"><path fill="#a31e39" d="m44.3 174.65l424.86-65.89 36.54-5.67-36.54-21.65 80.84-12.536-30.93 54.2 30.93 52.53-38.49 5.97-5.81-37.3v65.52l-418.51 64.91-6.35.99-36.51 5.66 35.15 23.74-79.48 12.33 30.927-54.2-30.927-52.53 38.696-5.94 5.604 59.49v-89.62"/><path d="m103.6 109.45c1.879-.387 3.885 1 5.357 3.406-.558-.214-1.139-.277-1.712-.159-2.185.449-3.427 3.354-2.776 6.489.652 3.136 2.95 5.312 5.134 4.863.468-.096.893-.306 1.265-.606-.504 2.403-1.722 4.136-3.427 4.486-2.907.6-6.123-3.051-7.184-8.155-1.06-5.103.436-9.725 3.343-10.323m186.81-100.36c-35.32 6.881-63.869 14.205-84.975 22.01-2.324-3.911-4.648-7.823-6.971-11.737-2.188-2.757-3.629-5.447 4.094-7.338 22.942-7.07 44.23-11.635 62.759-12.02 5.419-.026 9.94.651 12.863 2.582 4.077 2.169 8.152 4.337 12.229 6.505m73.06 18.04c-.414-3.071.132-3.601 3.751-3.125 3.897.511 5.059 4.165 5.768 7.136-2 .521-6.545 1.114-8.546 1.634-.576-3.108-.782-4.238-.973-5.645m44.552-9.787c-.933-3.321-3.224-5.58-5.341-5.144-1.278.264-2.221 1.449-2.668 3.098.099-3.356 1.529-6.01 3.751-6.468 2.898-.598 6.05 2.767 7.03 7.515.063.303.115.605.16.905l-2.935.095m-40.625-6.565c3.91-1.544 15.581-7.303 31.362-5.935 1.418.123 9 1.751 6.06 1.811-7.779.163-6.159 7.322-7.933 9.383-2.513 2.916-12.466-1.922-17.16-.955-.223.046 9.03 1.547 11.743 3.971 1.89 1.691-.088 1.946-1.694 1.137-2.044-1.029-11.667-3.538-17.472-2.966-2.162.213-3.03-1.086-3.811-2.834l-1.093-3.612m-118.06 70c2.384-.489 4.88 1.018 6.668 3.693-.698-.228-1.43-.282-2.159-.132-2.772.571-4.426 3.888-3.693 7.41.732 3.522 3.573 5.914 6.345 5.342.593-.121 1.135-.371 1.614-.721-.706 2.727-2.295 4.72-4.459 5.165-3.691.76-7.647-3.269-8.84-9-1.191-5.731.834-10.995 4.524-11.755m-9.605 11.839l-6.392 3.214c-.031-.143-.062-.287-.09-.43-3.059-14.71 2.179-28.22 11.698-30.18 2.782-.573 5.619-.096 8.321 1.231-1.384-.221-2.747-.352-3.02-.456-3.558-1.336-9.977 3.049-6.555 2.344 3.66-.754 5.332.405 7.476.766-.769-.049-1.538.001-2.301.158-7.151 1.474-11.1 11.786-9.132 23.357m4.888-28.979c10.08-2.076 20.883 8.871 24.12 24.453 3.239 15.583-2.31 29.897-12.393 31.975-10.08 2.074-20.884-8.873-24.12-24.455-3.237-15.58 2.311-29.896 12.393-31.972m42.74-27.08c-3.703 3.381-.65-7.421 7.455-4.562 2.706.956 6.562 4.521 5.285 7.794-2.81 3.653-5.163-9.585-12.741-3.232m58.2.948c1-8.533 9.598-16.486 10.933-10.04.087 2.136.53 5.564.373 7.149-.764.131-6.588 1.225-11.306 2.893m57.21-12.959c5.285 4.084 10.262 1.62 9.139-3.781 1.236 7.189 2.134 14.817 3.596 21.872-.489-2.864-2.883-2.642-6.465-1.494-.957-10.721-6.867-11.714-6.271-16.598m-302.94 114.34c-2.267 2.601-19.308-2.768-21.781-16.12-3.427-18.49 9.988-39.09 29.516-47.37-10.936 5.104-16.259 12.669-19.884 19.07-1.746 3.082-2.623 8.37-.779 9.469 1.496.893 2.782-6.298 8.06-9.696 3.271-2.108 3.951-.921 1.52 1.019-1.274 1.018-2.202 2.482-2.947 4.122-4.467 9.855-2.15 32.05 6.298 39.505m37.738-.832c.028-1.478.103-1.202.556-2.387 1.465-3.846.556-4.01 4.571-4.818 27.556-5.543 57.04-9.319 84.01-14.936.364 1.497-.53 3.277-2.974 3.909-29.354 6.075-56.46 11.09-86.16 18.232m152.24-35.14c23.453-4.829 46.44-10.825 69.63-15.756 7.911 7.849 12.81 6.451 14.393 7.867-7.428 1.335-84.76 14.03-85.89 14.87l1.863-6.981m-139.93-70.05c7.725-5.549 28.558-16.827 35.659-12.632 3.063.768 10.672 11.459 11.901 14.07-24.24 4.979-41.994 12.591-65.957 19.716.032-2.684 2.559-5.415 4.215-7.395 3.27-3.91 7.87-8.991 11.931-12.11l2.251-1.65m161.94 30.18c.139-5 1.586-6.792 5.03-9.21 12.749-8.758 55.955-18.07 74.864-21.09 9.851-.665 12.09 7.228 13.253 9.246-3.325 1.792-6.913 1.315-10.235 4.03 0 0-2.544-2.976-6.394-.868.27.276 1.166 2.147-.224 1.968-.019-.051-.004.147-.026.216-2.408-1.059-2.584-1.288-4.572-.913.941.93 1.344 1.529 1.149 2.382-2.503-1.549-3.76-2.414-5.143-1.969.513.552.469 2.573-.31 3.124-.25-1.305-3.161-1.878-4.232-1.592.829.271 1.482 1.526.99 2.653-1.484-1.01-3.124-2.504-5.773-1.469.572.302.877 1.077 1.109 2.916-.438-.609-2.701-3.193-5.967-1.986 1.099.276 1.769 1.263 1.245 2.701-2.34-.626-3.808-2.431-6.377-1.036 1.19.36 1.639 1.661 1.02 2.616-.706-.283-4.191-2.647-6.089-1.359.854.062.992 1.908-.16 2.686-1.493-1.293-2.829-2.348-5.57-1.24 1.242.205 1.505 1.783 1 2.6-3.495-1.454-3.594-2.769-6.451-1.5.378.362 1.759 1.629.573 2.709-8.113-3.161-6.186-.102-13.912 1.457-1.67.336-3.335.706-5 1.046l-13.797 1.887m-112.76 49.875c-6.01-2.207-8.921-5.921-9.827-10.555-7.03-35.924 56.854-75.23 95.99-75.69 23.536-.279 21.1 31.901 3.495 22.634-5.561-3.791-6.309-15.14-.916-18.01 1.914-1.017 4.813-1.07 8.983.444-9.878-11.817-83.54 18.16-78.73 29.23 1.153 2.652 17.82-2.452 22.18-2.98-.276.351-.098.282-.634.694-30.01 9.555-15.472 51.55-12.904 57.22-4.145-.377-19.713 1.889-27.641-2.988m-91.89 33.737c-1.951.376-12.666 3.176-19.487 4.764-17.748 4.129 10.713 3.893 12.825 3.211 42.13-13.638 306.03-37.29 321.03-58.805 4.478-6.424-22.785-5.389-24.718-6.468 6.252-1.836 9.972-8.664 11.252-14.507.553-2.524 2.966-3.989 4.298-6.164.212-.346.547-.971.802-1.428 1.56-2.804 2.092-5.569 2.654-8.807.395-2.283.357-4.203.339-6.807-.009-1.273-.007-2.492-.136-3.423-.161-1.163.028-1.177.583-2.525-44.985 12.314-72.919 18.931-128.18 27.807.114-1.899-.066-.911 1.137-1.982 3.806-3.388 9.78-6.338 14.661-6.221-1.097-4.04 2.103-12.575 7.38-15.83 9.81-6.05 25.407-9.992 31.09-11.468 1.861-6.531 3.01-14.11 12.749-15.701-.09-2.972-.699-4.471 2.602-5.279 5.226-1.279 3.313 2.946 5.772 4.094.867.404 3.507-.107 5.749-.921-3.557-10.504-5.09-18.624-18.06-18.98-8.591-.237-21.887 3.054-38.963 6.487-17.08 3.433-141.86 33.716-163.07 49.949-4.755 3.64.718 5.141 4.264 5.393 16.517 1.161 23.91 14.06 16.705 24.09-4.54 6.319-14.638 8.403-30.812-7.489-1.749-1.628-15.14-11.847-25.971-2.237-8.76 7.773 3.844 6.243 3.257 11.992-.579 5.686-9.446 1.681-15.63 4.104l-.292.122c-10.679 3.884-8.956 23.973-7.671 27.59l4.998-2.717c-1.8-10.293 1.12-19.35 6.753-20.509.522-.107 1.015-.147 1.545-.115.248.014.347.055.097-.144-.867-.693-3.084-1.216-5.758-.667-.801.166 12.279-9.02 18.16 19.25 2.917 14.03-.851 26.16-8.147 28.18-3.741 1.035-5.32-.051-6.236-.531.331.212.93 2.254 2.435 2.694" fill="#062f3c"/><g fill="#fff"><path d="m94.38 186.82c.886-1.772 1.329-3.485 1.329-5.138 0-1.654-.089-2.938-.266-3.854-.177-.915-.472-1.728-.886-2.436-.886-1.536-2.215-2.303-3.987-2.303-2.185 0-4.164.797-5.936 2.392-1.89 1.654-2.835 3.78-2.835 6.379 0 1.654.576 3.115 1.728 4.385 1.152 1.27 2.613 2.495 4.385 3.677 1.772 1.181 3.662 2.362 5.67 3.544 2.01 1.181 3.898 2.481 5.67 3.898 4.075 3.248 6.113 7.06 6.113 11.428 0 2.953-.783 5.685-2.348 8.195-1.565 2.51-3.647 4.681-6.246 6.511-5.67 4.02-12.255 6.02-19.756 6.02-6.083 0-10.69-.989-13.82-2.968-3.13-1.979-4.695-4.474-4.695-7.486 0-5.375 2.097-8.741 6.29-10.1 1.181-.413 2.672-.62 4.474-.62 1.801 0 3.736.384 5.803 1.152-.945 2.421-1.417 4.725-1.417 6.91 0 4.725 1.683 7.087 5.05 7.087 2.185 0 4.179-.797 5.98-2.392 1.801-1.595 2.702-3.293 2.702-5.094 0-1.801-.576-3.352-1.728-4.651-1.152-1.299-2.584-2.466-4.297-3.499-1.713-1.034-3.558-2.052-5.537-3.056-1.979-1-3.824-2.215-5.537-3.632-4.02-3.248-6.02-7.471-6.02-12.668 0-3.366.827-6.364 2.481-8.992 1.654-2.628 3.809-4.828 6.467-6.6 5.315-3.603 11.236-5.404 17.762-5.404 6.526 0 11.369.974 14.529 2.923 3.16 1.949 4.74 4.577 4.74 7.885 0 2.894-1.122 5.256-3.366 7.087-1.949 1.536-4.105 2.303-6.467 2.303-2.362 0-4.37-.295-6.02-.886m49.906 25.957c1.477 1 2.215 2.613 2.215 4.828 0 2.215-.561 4.03-1.683 5.448-1.122 1.417-2.599 2.599-4.43 3.544-3.78 1.949-7.707 2.923-11.783 2.923-4.075 0-7.309-.443-9.701-1.329-2.392-.886-4.385-2.156-5.98-3.809-3.13-3.13-4.695-7.56-4.695-13.289 0-8.918 2.421-16.09 7.264-21.528 5.197-5.847 12.314-8.77 21.35-8.77 5.611 0 9.804 1.181 12.58 3.544 2.067 1.772 3.101 4.105 3.101 6.999 0 10.395-8.977 15.592-26.932 15.592-.236 1.536-.354 2.953-.354 4.252 0 2.717.605 4.592 1.816 5.626 1.211 1.034 2.938 1.55 5.183 1.55 2.244 0 4.562-.517 6.954-1.55 2.392-1.034 4.09-2.377 5.094-4.03m-18.07-9.656c4.193 0 7.501-1.299 9.922-3.898 2.421-2.481 3.632-5.699 3.632-9.656 0-1.358-.251-2.407-.753-3.145-.502-.738-1.255-1.107-2.259-1.107-1 0-1.934.192-2.791.576-.856.384-1.728 1.225-2.613 2.525-2.185 2.953-3.898 7.855-5.138 14.706m89.42 26.4c-7.146 0-10.719-2.776-10.719-8.328 0-2.421.517-5.98 1.55-10.675 1.034-4.695 1.728-7.988 2.082-9.878.827-4.311 1.24-7.146 1.24-8.505 0-3.01-1.122-4.518-3.366-4.518-1.477 0-2.923 1.019-4.341 3.056-1.417 2.038-2.451 5.094-3.101 9.169l-5.493 27.906-17.275 1.772 4.784-24.1c.532-2.658 1.034-5.493 1.506-8.505.472-3.01.709-4.754.709-5.227 0-2.717-1-4.075-3.01-4.075-1.358 0-2.776 1-4.252 3.01-1.477 2.01-2.628 5.079-3.455 9.213l-5.404 27.906-17.452 1.772 9.302-46.953 14.44-1.772-1.506 8.948c1.536-3.189 3.721-5.478 6.556-6.866 2.835-1.388 6.467-2.082 10.897-2.082 2.54 0 4.636.62 6.29 1.86 1.654 1.24 2.746 2.864 3.278 4.872 1-2.067 2.791-3.706 5.36-4.917 2.569-1.211 5.434-1.816 8.593-1.816 3.16 0 5.522.34 7.087 1.019 1.565.679 2.82 1.58 3.765 2.702 1.595 2.067 2.392 4.991 2.392 8.77 0 3.721-.797 9.45-2.392 17.19-.827 3.78-1.24 6.364-1.24 7.752 0 1.388.399 2.495 1.196 3.322.797.827 1.787 1.299 2.968 1.417-.591 2.01-1.905 3.603-3.942 4.784-2.038 1.181-4.385 1.772-7.04 1.772m35.38-6.644c-1.831 4.43-5.67 6.644-11.517 6.644-3.01 0-5.463-1.034-7.353-3.101-1.595-1.831-2.392-3.662-2.392-5.493 0-4.784 1.093-11.842 3.278-21.17l3.278-17.19 17.984-1.772-5.404 27.995c-1 4.37-1.506 7.323-1.506 8.859 0 3.366 1.211 5.109 3.632 5.227m-13.11-52.623c0-2.303.96-4.075 2.879-5.315 1.919-1.24 4.267-1.86 7.04-1.86 2.776 0 5.01.62 6.689 1.86 1.683 1.24 2.525 3.01 2.525 5.315 0 2.303-.93 4.046-2.791 5.227-1.86 1.181-4.179 1.772-6.954 1.772-2.776 0-5.03-.591-6.777-1.772-1.742-1.181-2.613-2.923-2.613-5.227m54.42 59.27c-7.146 0-10.719-2.776-10.719-8.328.059-1.536.325-3.603.797-6.201l1.595-8.15c1.595-7.678 2.392-12.373 2.392-14.09 0-3.426-1-5.138-3.01-5.138-3.366 0-5.936 4.4-7.707 13.2l-5.227 26.932-17.807 1.772 9.213-47.04 14.529-1.683-1.417 8.682c2.776-5.788 8.416-8.682 16.921-8.682 4.134 0 7.07.871 8.815 2.613 1.742 1.742 2.613 4.562 2.613 8.46 0 3.662-.945 9.774-2.835 18.338-.886 3.839-1.329 6.482-1.329 7.929 0 1.447.399 2.584 1.196 3.411.797.827 1.787 1.299 2.968 1.417-.591 2.01-1.905 3.603-3.942 4.784-2.038 1.181-4.385 1.772-7.04 1.772m33.694 0c-12.993 0-19.49-6.113-19.49-18.338 0-8.682 2.392-15.828 7.176-21.439 5.079-5.965 12.02-8.948 20.819-8.948 6.379 0 11.192 1.476 14.44 4.43 3.248 2.953 4.872 7.53 4.872 13.732 0 9.45-2.54 16.921-7.619 22.413-4.961 5.434-11.694 8.15-20.2 8.15m.399-32.557c-.561 2.392-1.196 5.478-1.905 9.258-.709 3.78-1.063 8-1.063 12.668 0 1.536.251 2.805.753 3.809.502 1 1.432 1.506 2.791 1.506 1.358 0 2.466-.325 3.322-.974.856-.65 1.609-1.742 2.259-3.278 1.181-2.717 2.244-6.6 3.189-11.65.945-5.05 1.462-8.667 1.55-10.852.089-2.185.133-4.09.133-5.714 0-1.624-.236-2.968-.709-4.03-.472-1.063-1.373-1.595-2.702-1.595-1.329 0-2.436.413-3.322 1.24-.886.827-1.683 2.038-2.392 3.632-.709 1.595-1.344 3.588-1.905 5.98m60.49-12.89c1.949-2.185 4.607-3.278 7.973-3.278 2.067 0 3.898.561 5.493 1.683 1.595 1.122 2.392 2.732 2.392 4.828 0 2.097-.325 4.267-.974 6.511-.65 2.244-1.477 4.518-2.481 6.821-2.01 4.489-4.4 8.593-7.176 12.314-3.898 5.375-7.722 9.479-11.472 12.314-3.75 2.835-7.663 4.252-11.738 4.252-3.307 0-5.965-.384-7.973-1.152-.354-12.403-.753-20.819-1.196-25.25-.443-4.43-.842-7.855-1.196-10.277-.591-4.725-1.772-7.648-3.544-8.77 1.358-1.181 2.702-2.023 4.03-2.525 1.329-.502 3.366-.753 6.113-.753 2.746 0 5.094 1.078 7.04 3.234 1.949 2.156 3.115 5.138 3.499 8.948.384 3.809.576 8.02.576 12.624 0 4.607-.177 9.686-.532 15.238 1.831-1.299 3.721-3.928 5.67-7.885 2.658-5.493 4.459-11.546 5.404-18.16.295-2.01.443-4.075.443-6.201 0-2.126-.118-3.632-.354-4.518m33.871 45.45c-12.993 0-19.49-6.113-19.49-18.338 0-8.682 2.392-15.828 7.176-21.439 5.079-5.965 12.02-8.948 20.819-8.948 6.379 0 11.192 1.476 14.44 4.43 3.248 2.953 4.872 7.53 4.872 13.732 0 9.45-2.54 16.921-7.619 22.413-4.961 5.434-11.694 8.15-20.2 8.15m.399-32.557c-.561 2.392-1.196 5.478-1.905 9.258-.709 3.78-1.063 8-1.063 12.668 0 1.536.251 2.805.753 3.809.502 1 1.432 1.506 2.791 1.506 1.358 0 2.466-.325 3.322-.974.856-.65 1.609-1.742 2.259-3.278 1.181-2.717 2.244-6.6 3.189-11.65.945-5.05 1.462-8.667 1.55-10.852.089-2.185.133-4.09.133-5.714 0-1.624-.236-2.968-.709-4.03-.472-1.063-1.373-1.595-2.702-1.595-1.329 0-2.436.413-3.322 1.24-.886.827-1.683 2.038-2.392 3.632-.709 1.595-1.344 3.588-1.905 5.98m55.44-.31c.827-2.185 1.24-4.223 1.24-6.113 0-3.485-1.417-5.227-4.252-5.227-1.477 0-2.82.664-4.03 1.993-1.211 1.329-1.816 2.82-1.816 4.474 0 1.181.472 2.244 1.417 3.189 1.358 1.299 3.78 3.01 7.264 5.138 3.485 2.126 5.891 4.06 7.22 5.803 1.329 1.742 1.993 3.809 1.993 6.201 0 2.392-.576 4.681-1.728 6.866-1.152 2.185-2.761 4.046-4.828 5.581-4.43 3.307-10.188 4.961-17.275 4.961-3.839 0-7.235-1-10.188-3.01-2.953-1.949-4.43-4.075-4.43-6.379 0-2.303.842-4.134 2.525-5.493 1.683-1.358 3.765-2.038 6.246-2.038 2.481 0 4.489.472 6.02 1.417-.768 1.949-1.152 3.573-1.152 4.872 0 3.898 1.654 5.847 4.961 5.847 1.417 0 2.599-.443 3.544-1.329.945-.886 1.417-2.097 1.417-3.632 0-3.01-2.54-6.113-7.619-9.302-4.134-2.717-6.674-4.607-7.619-5.67-1.595-1.89-2.392-4.02-2.392-6.379 0-2.362.561-4.666 1.683-6.91 1.122-2.244 2.717-4.164 4.784-5.758 4.311-3.307 10.217-4.961 17.718-4.961 3.839 0 6.895.768 9.169 2.303 2.274 1.536 3.411 3.603 3.411 6.201 0 2.599-.783 4.636-2.348 6.113-1.565 1.477-3.765 2.215-6.6 2.215-1.949 0-3.396-.325-4.341-.974" transform="matrix(.98769-.15643.15643.98769-27.32 45.45)"/><path d="m141.64 193.36c.606 1.88 2.117 2.714 3.928 2.714 1.292 0 3.239-.32 5.071-2.01l-.067.315h5.67l3.15-14.962c.984-.906 1.693-1.496 2.874-1.496 1.181 0 .079 2.599 2.284 2.599 1.929 0 2.835-1.496 2.835-2.874 0-1.496-.945-2.953-2.717-2.953-1.89 0-3.386 1.26-4.764 2.441l.512-2.441h-5.67l-3.348 15.791c-.713 1.072-1.708 1.772-2.758 1.772-1.102 0-1.614-.354-1.614-1.457 0-.354.039-.748.157-1.26l2.835-13.387h-5.67l-2.677 12.639c-.197.945-.315 1.811-.315 2.559 0 .114.002.226.007.336-1.817 1.999-3.65 3.482-6.528 3.482-1.89 0-2.835-.63-2.835-3.307 0-.472.039-1.024.079-1.575 4.725-.276 9.06-3.78 9.06-8.308 0-1.969-.827-3.78-4.331-3.78-8.07 0-10.631 9.489-10.631 14.02 0 4.449 2.441 6.26 6.142 6.26 4.179 0 7.154-2.331 9.326-5.114m45.44-7.679c-.356-.833-.551-1.848-.551-3.066 0-4.528 2.559-13.978 10.67-13.978 3.111 0 4.764 1.811 5 5.315 1.378-.276 2.362-1.969 2.796-2.717h1.26c-.787 1.693-1.969 4.134-4.055 5.276-.472 7.56-4.41 12.324-9.371 12.324-1.978 0-3.657-.505-4.783-1.678-2.203 4.339-5.106 4.988-6.947 4.988-2.205 0-3.622-1.26-3.859-3.622-1.221 1.811-3.071 3.622-5.867 3.622-2.677 0-5.237-1.654-5.237-6.339 0-5.315 3.268-13.781 10.119-13.781 2.244 0 3.189.866 3.189 2.01v.276l.433-2.087h5.67l-2.835 13.387c-.118.512-.157.906-.157 1.26 0 1.102.512 1.693 1.614 1.693 1.318 0 2.288-1.276 2.91-2.882m7.628-1.336c-1.496 0-2.01-.591-2.01-3.189 0-3.859 2.323-11.06 5.119-11.06.984 0 1.417.591 1.496 2.244-.669.315-1.102.984-1.102 2.047 0 .984.315 1.536.945 1.772-.591 4.646-2.52 8.19-4.449 8.19m-9.623-19.439c-.551.591-1.496.906-2.481.906-2.284 0-3.622-1.299-6.497-1.299-2.992 0-5.315 1.339-6.575 3.859l.236.079c.709-.669 1.575-1.024 2.599-1.024 2.166 0 4.02 1.457 6.615 1.457 2.992 0 5.906-2.087 6.339-3.937l-.236-.039m-7.297 8.62c1.26 0 1.614 1.024 1.614 1.496l-1.89 8.898c-.472 2.284-2.126 3.465-3.268 3.465-.709 0-1.969-.039-1.969-3.071 0-3.701 2.166-10.788 5.512-10.788m-34.01-3.1c0 1.732 1.378 3.111 3.111 3.111 1.732 0 3.15-1.378 3.15-3.111 0-1.732-1.417-3.15-3.15-3.15-1.732 0-3.111 1.417-3.111 3.15m-5.425 10.473c0 3.268-2.677 6.3-5.709 6.497.787-3.898 2.717-8.111 4.725-8.111.748 0 .984.63.984 1.614m-18.06 2.429l1.654-7.835c1.811.394 3.701.748 5.512.748 3.071-.669 3.189-3.071 3.74-4.725-1.102.354-2.323.472-3.544.472-2.481 0-4.961-.472-6.536-.472-9.725 0-13.426 5-13.426 10.237 0 2.835 1.496 3.819 4.213 3.819-.039-.354-.551-.669-.551-2.677 0-6.3 2.087-8.03 5.119-8.15l-5.67 26.302h5.67l3.189-14.804h5.749l.63-2.914h-5.749"/></g></g></svg>